<mxfile host="app.diagrams.net" modified="2021-09-28T07:30:38.972Z" agent="5.0 (Windows)" etag="_DWajC6Yux973fEvTcVp" version="15.3.5" type="github">
  <diagram name="Page-1" id="13e1069c-82ec-6db2-03f1-153e76fe0fe0">
    <mxGraphModel dx="1038" dy="564" grid="1" gridSize="10" guides="1" tooltips="1" connect="1" arrows="1" fold="1" page="1" pageScale="1" pageWidth="1100" pageHeight="850" background="none" math="0" shadow="0">
      <root>
        <mxCell id="0" />
        <mxCell id="1" parent="0" />
        <mxCell id="CMqTHXdfddeT0Ks9XY-2-92" value="" style="group;fillColor=#dae8fc;strokeColor=#6c8ebf;" parent="1" vertex="1" connectable="0">
          <mxGeometry x="670" y="620" width="830" height="50" as="geometry" />
        </mxCell>
        <mxCell id="CMqTHXdfddeT0Ks9XY-2-93" value="" style="rounded=1;whiteSpace=wrap;html=1;labelBackgroundColor=none;hachureGap=4;pointerEvents=0;fillColor=none;" parent="CMqTHXdfddeT0Ks9XY-2-92" vertex="1">
          <mxGeometry width="830" height="50" as="geometry" />
        </mxCell>
        <mxCell id="CMqTHXdfddeT0Ks9XY-2-94" value="&lt;b&gt;Loop&lt;/b&gt;" style="text;html=1;align=center;verticalAlign=middle;resizable=0;points=[];autosize=1;strokeColor=none;fillColor=none;" parent="CMqTHXdfddeT0Ks9XY-2-92" vertex="1">
          <mxGeometry x="694.8837209302326" y="33.333333333333336" width="40" height="20" as="geometry" />
        </mxCell>
        <mxCell id="CMqTHXdfddeT0Ks9XY-2-89" value="" style="group;fillColor=#dae8fc;strokeColor=#6c8ebf;" parent="1" vertex="1" connectable="0">
          <mxGeometry x="731.5" y="765.25" width="668.5" height="60" as="geometry" />
        </mxCell>
        <mxCell id="CMqTHXdfddeT0Ks9XY-2-90" value="" style="rounded=1;whiteSpace=wrap;html=1;labelBackgroundColor=none;hachureGap=4;pointerEvents=0;fillColor=none;" parent="CMqTHXdfddeT0Ks9XY-2-89" vertex="1">
          <mxGeometry x="-120.54918032786884" width="789.0491803278688" height="60" as="geometry" />
        </mxCell>
        <mxCell id="CMqTHXdfddeT0Ks9XY-2-91" value="&lt;b&gt;Loop&lt;/b&gt;" style="text;html=1;align=center;verticalAlign=middle;resizable=0;points=[];autosize=1;strokeColor=none;fillColor=none;" parent="CMqTHXdfddeT0Ks9XY-2-89" vertex="1">
          <mxGeometry x="394.5245901639344" y="40" width="40" height="20" as="geometry" />
        </mxCell>
        <mxCell id="7baba1c4bc27f4b0-2" value="IHM" style="shape=umlLifeline;perimeter=lifelinePerimeter;whiteSpace=wrap;html=1;container=1;collapsible=0;recursiveResize=0;outlineConnect=0;rounded=1;shadow=0;comic=0;labelBackgroundColor=none;strokeWidth=1;fontFamily=Verdana;fontSize=12;align=center;" parent="1" vertex="1">
          <mxGeometry x="240" y="80" width="100" height="1650" as="geometry" />
        </mxCell>
        <mxCell id="7baba1c4bc27f4b0-14" value="SMA1a: RechercherClient(Denomination, Ville)" style="html=1;verticalAlign=bottom;endArrow=block;labelBackgroundColor=none;fontFamily=Verdana;fontSize=12;edgeStyle=elbowEdgeStyle;elbow=vertical;" parent="7baba1c4bc27f4b0-2" target="7baba1c4bc27f4b0-3" edge="1">
          <mxGeometry relative="1" as="geometry">
            <mxPoint x="50" y="110.28" as="sourcePoint" />
            <mxPoint x="200" y="110.28000000000023" as="targetPoint" />
          </mxGeometry>
        </mxCell>
        <mxCell id="CMqTHXdfddeT0Ks9XY-2-107" value="ChoisirClient" style="html=1;verticalAlign=bottom;endArrow=block;entryX=0;entryY=0;labelBackgroundColor=none;fontFamily=Verdana;fontSize=12;edgeStyle=elbowEdgeStyle;elbow=vertical;" parent="7baba1c4bc27f4b0-2" edge="1">
          <mxGeometry x="-0.0768" relative="1" as="geometry">
            <mxPoint x="-89.99999999999977" y="768.5799999999999" as="sourcePoint" />
            <mxPoint x="40.00000000000023" y="768.5799999999999" as="targetPoint" />
            <mxPoint as="offset" />
          </mxGeometry>
        </mxCell>
        <mxCell id="CMqTHXdfddeT0Ks9XY-2-109" value="SMA3 - ConsulterlClient(idClient):&lt;br&gt;idClient, Client, idAdresse, Adresse, idAgence, Agence, idAgent, Agent, Liste&amp;lt;idSegment,Segment&amp;gt;" style="html=1;verticalAlign=bottom;endArrow=block;labelBackgroundColor=none;fontFamily=Verdana;fontSize=12;edgeStyle=elbowEdgeStyle;elbow=vertical;" parent="7baba1c4bc27f4b0-2" target="7baba1c4bc27f4b0-3" edge="1">
          <mxGeometry x="-0.0768" relative="1" as="geometry">
            <mxPoint x="50.000000000000114" y="879.9999999999999" as="sourcePoint" />
            <mxPoint x="180.00000000000023" y="879.9999999999999" as="targetPoint" />
            <mxPoint as="offset" />
          </mxGeometry>
        </mxCell>
        <mxCell id="7baba1c4bc27f4b0-4" value="Client" style="shape=umlLifeline;perimeter=lifelinePerimeter;whiteSpace=wrap;html=1;container=1;collapsible=0;recursiveResize=0;outlineConnect=0;rounded=1;shadow=0;comic=0;labelBackgroundColor=none;strokeWidth=1;fontFamily=Verdana;fontSize=12;align=center;" parent="1" vertex="1">
          <mxGeometry x="950" y="100" width="310" height="1600" as="geometry" />
        </mxCell>
        <mxCell id="CMqTHXdfddeT0Ks9XY-2-127" value="" style="group" parent="7baba1c4bc27f4b0-4" vertex="1" connectable="0">
          <mxGeometry x="-157" y="1390" width="817" height="60" as="geometry" />
        </mxCell>
        <mxCell id="CMqTHXdfddeT0Ks9XY-2-128" value="" style="rounded=1;whiteSpace=wrap;html=1;labelBackgroundColor=none;hachureGap=4;pointerEvents=0;fillColor=#dae8fc;strokeColor=#6c8ebf;" parent="CMqTHXdfddeT0Ks9XY-2-127" vertex="1">
          <mxGeometry x="-170" width="987" height="60" as="geometry" />
        </mxCell>
        <mxCell id="CMqTHXdfddeT0Ks9XY-2-129" value="&lt;b&gt;Loop&lt;/b&gt;" style="text;html=1;align=center;verticalAlign=middle;resizable=0;points=[];autosize=1;strokeColor=none;fillColor=none;" parent="CMqTHXdfddeT0Ks9XY-2-127" vertex="1">
          <mxGeometry x="482.16393442622956" y="40" width="40" height="20" as="geometry" />
        </mxCell>
        <mxCell id="CMqTHXdfddeT0Ks9XY-2-18" value="" style="group;fillColor=#dae8fc;strokeColor=#6c8ebf;" parent="7baba1c4bc27f4b0-4" vertex="1" connectable="0">
          <mxGeometry x="-230.5" y="300" width="610" height="60" as="geometry" />
        </mxCell>
        <mxCell id="CMqTHXdfddeT0Ks9XY-2-16" value="" style="rounded=1;whiteSpace=wrap;html=1;labelBackgroundColor=none;hachureGap=4;pointerEvents=0;fillColor=none;" parent="CMqTHXdfddeT0Ks9XY-2-18" vertex="1">
          <mxGeometry x="-110" width="720" height="60" as="geometry" />
        </mxCell>
        <mxCell id="CMqTHXdfddeT0Ks9XY-2-17" value="&lt;b&gt;Loop&lt;/b&gt;" style="text;html=1;align=center;verticalAlign=middle;resizable=0;points=[];autosize=1;strokeColor=none;fillColor=none;" parent="CMqTHXdfddeT0Ks9XY-2-18" vertex="1">
          <mxGeometry x="360" y="40" width="40" height="20" as="geometry" />
        </mxCell>
        <mxCell id="CMqTHXdfddeT0Ks9XY-2-19" value="" style="group;fillColor=#dae8fc;strokeColor=#6c8ebf;" parent="7baba1c4bc27f4b0-4" vertex="1" connectable="0">
          <mxGeometry x="-220.5" y="160" width="555" height="60" as="geometry" />
        </mxCell>
        <mxCell id="CMqTHXdfddeT0Ks9XY-2-20" value="" style="rounded=1;whiteSpace=wrap;html=1;labelBackgroundColor=none;hachureGap=4;pointerEvents=0;fillColor=none;" parent="CMqTHXdfddeT0Ks9XY-2-19" vertex="1">
          <mxGeometry width="555" height="60" as="geometry" />
        </mxCell>
        <mxCell id="CMqTHXdfddeT0Ks9XY-2-21" value="&lt;b&gt;Loop&lt;/b&gt;" style="text;html=1;align=center;verticalAlign=middle;resizable=0;points=[];autosize=1;strokeColor=none;fillColor=none;" parent="CMqTHXdfddeT0Ks9XY-2-19" vertex="1">
          <mxGeometry x="464.6511627906977" y="40" width="40" height="20" as="geometry" />
        </mxCell>
        <mxCell id="CMqTHXdfddeT0Ks9XY-2-15" value="" style="group" parent="7baba1c4bc27f4b0-4" vertex="1" connectable="0">
          <mxGeometry x="-180.5" y="240" width="220" height="50" as="geometry" />
        </mxCell>
        <mxCell id="CMqTHXdfddeT0Ks9XY-2-13" value="" style="curved=1;endArrow=classic;html=1;startSize=14;endSize=14;sourcePerimeterSpacing=8;targetPerimeterSpacing=8;" parent="CMqTHXdfddeT0Ks9XY-2-15" source="7baba1c4bc27f4b0-3" target="7baba1c4bc27f4b0-3" edge="1">
          <mxGeometry width="50" height="50" relative="1" as="geometry">
            <mxPoint x="200" y="58.333333333333336" as="sourcePoint" />
            <mxPoint x="250" y="16.666666666666668" as="targetPoint" />
            <Array as="points">
              <mxPoint />
              <mxPoint x="40" y="8.333333333333334" />
              <mxPoint x="80" y="33.333333333333336" />
              <mxPoint y="50" />
            </Array>
          </mxGeometry>
        </mxCell>
        <mxCell id="CMqTHXdfddeT0Ks9XY-2-14" value="Filtrer en fonction de la ville" style="text;html=1;align=center;verticalAlign=middle;resizable=0;points=[];autosize=1;strokeColor=none;fillColor=none;" parent="CMqTHXdfddeT0Ks9XY-2-15" vertex="1">
          <mxGeometry x="60" y="25" width="160" height="20" as="geometry" />
        </mxCell>
        <mxCell id="CMqTHXdfddeT0Ks9XY-2-9" value="SOM 3&lt;span style=&quot;font-size: 12px&quot;&gt;&amp;nbsp;- ChercherLesPersonnesDuClient(Liste&amp;lt;idClient&amp;gt;)&lt;br&gt;:Liste&amp;lt;idPersonne, Personne&amp;gt;&lt;br&gt;&lt;/span&gt;" style="edgeLabel;html=1;align=center;verticalAlign=middle;resizable=0;points=[];labelBackgroundColor=none;" parent="7baba1c4bc27f4b0-4" vertex="1" connectable="0">
          <mxGeometry x="10.001428571428733" y="330" as="geometry" />
        </mxCell>
        <mxCell id="CMqTHXdfddeT0Ks9XY-2-10" value="" style="group" parent="7baba1c4bc27f4b0-4" vertex="1" connectable="0">
          <mxGeometry x="49.50142857142873" y="290" width="139.99857142857127" as="geometry" />
        </mxCell>
        <mxCell id="CMqTHXdfddeT0Ks9XY-2-111" value="" style="endArrow=classic;html=1;startSize=14;endSize=14;sourcePerimeterSpacing=8;targetPerimeterSpacing=8;" parent="7baba1c4bc27f4b0-4" edge="1">
          <mxGeometry width="50" height="50" relative="1" as="geometry">
            <mxPoint x="-286.99666666666656" y="940" as="sourcePoint" />
            <mxPoint x="493.6700000000001" y="940" as="targetPoint" />
            <Array as="points">
              <mxPoint x="50.66999999999996" y="940" />
            </Array>
          </mxGeometry>
        </mxCell>
        <mxCell id="CMqTHXdfddeT0Ks9XY-2-112" value="SOM2 - ChercherAddressePrincipale(idAddresse)`&lt;br&gt;&lt;span style=&quot;font-size: 12px;&quot;&gt;: idAdresse, Adresse&lt;/span&gt;" style="edgeLabel;html=1;align=center;verticalAlign=middle;resizable=0;points=[];labelBackgroundColor=none;" parent="CMqTHXdfddeT0Ks9XY-2-111" vertex="1" connectable="0">
          <mxGeometry x="0.0341" y="6" relative="1" as="geometry">
            <mxPoint y="6" as="offset" />
          </mxGeometry>
        </mxCell>
        <mxCell id="CMqTHXdfddeT0Ks9XY-2-126" value="SOM4 - MAJdeSegmentClient(idSegment, Segment)" style="html=1;verticalAlign=bottom;endArrow=block;labelBackgroundColor=none;fontFamily=Verdana;fontSize=12;edgeStyle=elbowEdgeStyle;elbow=vertical;" parent="7baba1c4bc27f4b0-4" target="7baba1c4bc27f4b0-7" edge="1">
          <mxGeometry x="-0.0768" relative="1" as="geometry">
            <mxPoint x="-287" y="1420" as="sourcePoint" />
            <mxPoint x="492.5" y="1420" as="targetPoint" />
            <mxPoint as="offset" />
          </mxGeometry>
        </mxCell>
        <mxCell id="7baba1c4bc27f4b0-6" value="Adresse" style="shape=umlLifeline;perimeter=lifelinePerimeter;whiteSpace=wrap;html=1;container=1;collapsible=0;recursiveResize=0;outlineConnect=0;rounded=1;shadow=0;comic=0;labelBackgroundColor=none;strokeWidth=1;fontFamily=Verdana;fontSize=12;align=center;" parent="1" vertex="1">
          <mxGeometry x="1430" y="100" width="60" height="1600" as="geometry" />
        </mxCell>
        <mxCell id="7baba1c4bc27f4b0-7" value="Structure" style="shape=umlLifeline;perimeter=lifelinePerimeter;whiteSpace=wrap;html=1;container=1;collapsible=0;recursiveResize=0;outlineConnect=0;rounded=1;shadow=0;comic=0;labelBackgroundColor=none;strokeWidth=1;fontFamily=Verdana;fontSize=12;align=center;" parent="1" vertex="1">
          <mxGeometry x="1520" y="100" width="100" height="1600" as="geometry" />
        </mxCell>
        <mxCell id="7baba1c4bc27f4b0-8" value="Agent (utilisateur)" style="shape=umlLifeline;perimeter=lifelinePerimeter;whiteSpace=wrap;html=1;container=1;collapsible=0;recursiveResize=0;outlineConnect=0;rounded=1;shadow=0;comic=0;labelBackgroundColor=none;strokeWidth=1;fontFamily=Verdana;fontSize=12;align=center;" parent="1" vertex="1">
          <mxGeometry x="100" y="80" width="100" height="1650" as="geometry" />
        </mxCell>
        <mxCell id="CMqTHXdfddeT0Ks9XY-2-108" value="ConsulterDossierClient" style="html=1;verticalAlign=bottom;endArrow=block;entryX=0;entryY=0;labelBackgroundColor=none;fontFamily=Verdana;fontSize=12;edgeStyle=elbowEdgeStyle;elbow=vertical;" parent="7baba1c4bc27f4b0-8" edge="1">
          <mxGeometry x="-0.0768" relative="1" as="geometry">
            <mxPoint x="60.00000000000023" y="840.5799999999999" as="sourcePoint" />
            <mxPoint x="190.00000000000023" y="840.5799999999999" as="targetPoint" />
            <mxPoint as="offset" />
          </mxGeometry>
        </mxCell>
        <mxCell id="7baba1c4bc27f4b0-11" value="RechercherClient" style="html=1;verticalAlign=bottom;endArrow=block;entryX=0;entryY=0;labelBackgroundColor=none;fontFamily=Verdana;fontSize=12;edgeStyle=elbowEdgeStyle;elbow=vertical;" parent="1" edge="1">
          <mxGeometry relative="1" as="geometry">
            <mxPoint x="155" y="180" as="sourcePoint" />
            <mxPoint x="285" y="180" as="targetPoint" />
          </mxGeometry>
        </mxCell>
        <mxCell id="CMqTHXdfddeT0Ks9XY-2-22" value=":Liste&amp;lt;idClient, Client, Liste&amp;lt;idPersonne, Personne&amp;gt;, idAdresse, adresse&amp;gt;" style="text;html=1;align=center;verticalAlign=middle;resizable=0;points=[];autosize=1;strokeColor=none;fillColor=none;" parent="1" vertex="1">
          <mxGeometry x="270" y="200" width="410" height="20" as="geometry" />
        </mxCell>
        <mxCell id="7baba1c4bc27f4b0-5" value="Personne" style="shape=umlLifeline;perimeter=lifelinePerimeter;whiteSpace=wrap;html=1;container=1;collapsible=0;recursiveResize=0;outlineConnect=0;rounded=1;shadow=0;comic=0;labelBackgroundColor=none;strokeWidth=1;fontFamily=Verdana;fontSize=12;align=center;" parent="1" vertex="1">
          <mxGeometry x="1310" y="100" width="430" height="1600" as="geometry" />
        </mxCell>
        <mxCell id="CMqTHXdfddeT0Ks9XY-2-118" value="" style="group" parent="7baba1c4bc27f4b0-5" vertex="1" connectable="0">
          <mxGeometry x="-420" y="1030" width="850" height="60" as="geometry" />
        </mxCell>
        <mxCell id="CMqTHXdfddeT0Ks9XY-2-119" value="" style="rounded=1;whiteSpace=wrap;html=1;labelBackgroundColor=none;hachureGap=4;pointerEvents=0;fillColor=#dae8fc;strokeColor=#6c8ebf;" parent="CMqTHXdfddeT0Ks9XY-2-118" vertex="1">
          <mxGeometry x="-254.12371134020617" width="1104.123711340206" height="60" as="geometry" />
        </mxCell>
        <mxCell id="CMqTHXdfddeT0Ks9XY-2-120" value="&lt;b&gt;Loop&lt;/b&gt;" style="text;html=1;align=center;verticalAlign=middle;resizable=0;points=[];autosize=1;strokeColor=none;fillColor=none;" parent="CMqTHXdfddeT0Ks9XY-2-118" vertex="1">
          <mxGeometry x="501.63934426229497" y="40" width="40" height="20" as="geometry" />
        </mxCell>
        <mxCell id="CMqTHXdfddeT0Ks9XY-2-1" value="" style="endArrow=classic;html=1;startSize=14;endSize=14;sourcePerimeterSpacing=8;targetPerimeterSpacing=8;" parent="1" source="7baba1c4bc27f4b0-3" target="7baba1c4bc27f4b0-5" edge="1">
          <mxGeometry width="50" height="50" relative="1" as="geometry">
            <mxPoint x="776.810344827586" y="429.9999999999999" as="sourcePoint" />
            <mxPoint x="1156.5" y="429.9999999999999" as="targetPoint" />
            <Array as="points">
              <mxPoint x="947" y="430" />
            </Array>
          </mxGeometry>
        </mxCell>
        <mxCell id="7baba1c4bc27f4b0-17" value="ChercherClientParDenomination(denominationClient)&lt;br&gt;:Liste&amp;lt;idClient, Client, Liste&amp;lt;idPersonnes&amp;gt;, idAdresse&amp;gt;" style="html=1;verticalAlign=bottom;endArrow=block;labelBackgroundColor=none;fontFamily=Verdana;fontSize=12;edgeStyle=elbowEdgeStyle;elbow=vertical;" parent="1" source="7baba1c4bc27f4b0-3" target="7baba1c4bc27f4b0-4" edge="1">
          <mxGeometry x="-0.0483" relative="1" as="geometry">
            <mxPoint x="776.5" y="240" as="sourcePoint" />
            <Array as="points">
              <mxPoint x="917" y="240" />
              <mxPoint x="806.5" y="260" />
              <mxPoint x="786.5" y="230" />
            </Array>
            <mxPoint x="1066.25" y="259.9999999999999" as="targetPoint" />
            <mxPoint as="offset" />
          </mxGeometry>
        </mxCell>
        <mxCell id="CMqTHXdfddeT0Ks9XY-2-2" value="" style="endArrow=classic;html=1;startSize=14;endSize=14;sourcePerimeterSpacing=8;targetPerimeterSpacing=8;" parent="1" source="7baba1c4bc27f4b0-3" target="7baba1c4bc27f4b0-6" edge="1">
          <mxGeometry width="50" height="50" relative="1" as="geometry">
            <mxPoint x="776.310344827586" y="279.9999999999999" as="sourcePoint" />
            <mxPoint x="1296" y="279.9999999999999" as="targetPoint" />
            <Array as="points">
              <mxPoint x="1016.5" y="280" />
            </Array>
          </mxGeometry>
        </mxCell>
        <mxCell id="CMqTHXdfddeT0Ks9XY-2-5" value="SOM2 - ChercherAddressePrincipale(idAddresse)`&lt;br&gt;&lt;span style=&quot;font-size: 12px;&quot;&gt;: idAdresse, Adresse&lt;/span&gt;" style="edgeLabel;html=1;align=center;verticalAlign=middle;resizable=0;points=[];labelBackgroundColor=none;" parent="CMqTHXdfddeT0Ks9XY-2-2" vertex="1" connectable="0">
          <mxGeometry x="0.0341" y="6" relative="1" as="geometry">
            <mxPoint y="6" as="offset" />
          </mxGeometry>
        </mxCell>
        <mxCell id="CMqTHXdfddeT0Ks9XY-2-83" value="SMA1b: RechercherClientParom(Nom, Ville)" style="html=1;verticalAlign=bottom;endArrow=block;labelBackgroundColor=none;fontFamily=Verdana;fontSize=12;edgeStyle=elbowEdgeStyle;elbow=vertical;" parent="1" edge="1">
          <mxGeometry x="0.001" y="15" relative="1" as="geometry">
            <mxPoint x="285" y="555.53" as="sourcePoint" />
            <mxPoint x="674.4999999999995" y="554.75" as="targetPoint" />
            <mxPoint as="offset" />
          </mxGeometry>
        </mxCell>
        <mxCell id="CMqTHXdfddeT0Ks9XY-2-87" value="SOM 3&lt;span style=&quot;font-size: 12px&quot;&gt;&amp;nbsp;- ChercherLesPersonnesDuClient(Liste&amp;lt;idClient&amp;gt;)&lt;br&gt;:Liste&amp;lt;idPersonne, Personne&amp;gt;&lt;br&gt;&lt;/span&gt;" style="edgeLabel;html=1;align=center;verticalAlign=middle;resizable=0;points=[];labelBackgroundColor=none;" parent="1" vertex="1" connectable="0">
          <mxGeometry x="972.0014285714287" y="795.25" as="geometry" />
        </mxCell>
        <mxCell id="CMqTHXdfddeT0Ks9XY-2-88" value="" style="group" parent="1" vertex="1" connectable="0">
          <mxGeometry x="1011.5014285714287" y="755.25" width="139.99857142857127" as="geometry" />
        </mxCell>
        <mxCell id="CMqTHXdfddeT0Ks9XY-2-95" value="RechercherClient" style="html=1;verticalAlign=bottom;endArrow=block;entryX=0;entryY=0;labelBackgroundColor=none;fontFamily=Verdana;fontSize=12;edgeStyle=elbowEdgeStyle;elbow=vertical;" parent="1" edge="1">
          <mxGeometry relative="1" as="geometry">
            <mxPoint x="150" y="545.25" as="sourcePoint" />
            <mxPoint x="280" y="545.25" as="targetPoint" />
          </mxGeometry>
        </mxCell>
        <mxCell id="CMqTHXdfddeT0Ks9XY-2-96" value=":Liste&amp;lt;idClient, Client, Liste&amp;lt;idPersonne, Personne&amp;gt;, idAdresse, adresse&amp;gt;" style="text;html=1;align=center;verticalAlign=middle;resizable=0;points=[];autosize=1;strokeColor=none;fillColor=none;" parent="1" vertex="1">
          <mxGeometry x="265" y="565.25" width="410" height="20" as="geometry" />
        </mxCell>
        <mxCell id="CMqTHXdfddeT0Ks9XY-2-97" value="" style="endArrow=classic;html=1;startSize=14;endSize=14;sourcePerimeterSpacing=8;targetPerimeterSpacing=8;" parent="1" target="7baba1c4bc27f4b0-5" edge="1">
          <mxGeometry width="50" height="50" relative="1" as="geometry">
            <mxPoint x="673" y="795.25" as="sourcePoint" />
            <mxPoint x="1231.9999999999995" y="795.25" as="targetPoint" />
            <Array as="points">
              <mxPoint x="942" y="795.25" />
            </Array>
          </mxGeometry>
        </mxCell>
        <mxCell id="CMqTHXdfddeT0Ks9XY-2-98" value="ChercherClientParNom(nomClient)&lt;br&gt;:Liste&amp;lt;idClient, Client, Liste&amp;lt;idPersonnes&amp;gt;, idAdresse&amp;gt;" style="html=1;verticalAlign=bottom;endArrow=block;labelBackgroundColor=none;fontFamily=Verdana;fontSize=12;edgeStyle=elbowEdgeStyle;elbow=vertical;" parent="1" edge="1">
          <mxGeometry x="-0.0483" relative="1" as="geometry">
            <mxPoint x="673" y="605.25" as="sourcePoint" />
            <Array as="points">
              <mxPoint x="912" y="605.25" />
              <mxPoint x="801.5" y="625.25" />
              <mxPoint x="781.5" y="595.25" />
            </Array>
            <mxPoint x="1080" y="605" as="targetPoint" />
            <mxPoint as="offset" />
          </mxGeometry>
        </mxCell>
        <mxCell id="CMqTHXdfddeT0Ks9XY-2-99" value="" style="endArrow=classic;html=1;startSize=14;endSize=14;sourcePerimeterSpacing=8;targetPerimeterSpacing=8;" parent="1" edge="1">
          <mxGeometry width="50" height="50" relative="1" as="geometry">
            <mxPoint x="673" y="645.25" as="sourcePoint" />
            <mxPoint x="1454.4999999999995" y="645.25" as="targetPoint" />
            <Array as="points">
              <mxPoint x="1011.5" y="645.25" />
            </Array>
          </mxGeometry>
        </mxCell>
        <mxCell id="CMqTHXdfddeT0Ks9XY-2-100" value="SOM2 - ChercherAddressePrincipale(idAddresse)`&lt;br&gt;&lt;span style=&quot;font-size: 12px;&quot;&gt;: idAdresse, Adresse&lt;/span&gt;" style="edgeLabel;html=1;align=center;verticalAlign=middle;resizable=0;points=[];labelBackgroundColor=none;" parent="CMqTHXdfddeT0Ks9XY-2-99" vertex="1" connectable="0">
          <mxGeometry x="0.0341" y="6" relative="1" as="geometry">
            <mxPoint y="6" as="offset" />
          </mxGeometry>
        </mxCell>
        <mxCell id="CMqTHXdfddeT0Ks9XY-2-106" value="" style="shape=image;verticalLabelPosition=bottom;labelBackgroundColor=#ffffff;verticalAlign=top;aspect=fixed;imageAspect=0;image=data:image/png,iVBORw0KGgoAAAANSUhEUgAAA2kAAAClCAYAAADGSrX0AAAgAElEQVR4Ae19B5QVRfb+W3PaNcv431UHc1zFBJhFRcU1YSa4Kq4JXUVU1BETKIqoC4trQjDhquugKKOiDCaCAYefgiiioCKOijJrwJHV3fs/t2fqdXW/ruqq+wIzb74+550OdW+H79a9db9X1dUZsix9+vShgw8+mHr27GmRyq/oP//5D/3000/5ncRB+7///W9wHV4Xe+Hn4ecqxfLRRx8V/TKwUX4Qw0Yy/OBHMtwQ62S4sRZinRw71kSsk+GHWCfDDbFOhhtrIdbJsWPNUsW6jO02O3bsSJlMhiorK21ieZWhouQFX8kqCoi03E6lcmbYCDZiBJC4yOsB2iM5dqyJWCfDDyRNhhtinQw31kKsk2PHmqWKdSBp+dkpURsBNxGW1IMIuKkQGQUQcI3QOBWUKuCCSDuZI1EINkqEJfUg2qNUiBIF0B4lwuJ0EO2RE0xGIcQ6IzTWgnKMdSBpVpPLCsuxoiC5lNUF1kLAlWEHP5LhhuRShhtrIbmUY8eaiHUy/BDrZLgh1slwYy3EOjl2rFmqWAeSlp+dErURcBNhST2IgJsKkVEAAdcIjVNBqQIu/uxwMkeiEGyUCEvqQbRHqRAlCqA9SoTF6SDaIyeYjEKIdUZorAXlGOtA0qwmlxWWY0VBcimrC6yFgCvDDn4kww3JpQw31kJyKceONRHrZPgh1slwQ6yT4cZaiHVy7FizVLEOJC0/OyVqI+AmwpJ6EAE3FSKjAAKuERqnglIFXPzZ4WSORCHYKBGW1INoj1IhShRAe5QIi9NBtEdOMBmFEOuM0FgLyjHWgaRZTS4rLMeKguRSVhdYCwFXhh38SIYbkksZbqyF5FKOHWsi1snwQ6yT4YZYJ8ONtRDr5NixZqliXYYruek3ZcoU+vDDD2n+/PlGGZOu6/Fly5Zlv1/mqiOR++WXX4Lr8Fqi76PDAZefy0dHKjtv3ryiXwc2MvuIi91gIxl+8CMZboh1MtzYlxHr5Ngxfoh1MvwQ62S4IdbJcEOsk+Omcr5SxboMBwfTb+7cuVRVVYVfMwYDBw6ka665hq677joaNGgQ3XDDDTRkyBC6+eab6ZZbbqFbb72Vbr/9dho+fDj9/e9/pzvuuIPuvPNOuvvuu+nee++l++67j8aMGUMPPPAAPfTQQzR27Fj65z//SY899hj961//ourqanryySdp/Pjx9Mwzz1BNTQ0999xz9MILL9DkyZPp1VdfpWnTptFbb71FM2fOpFmzZgXHubJ88skn9Pnnn9OXX35J33zzDX333Xe0dOlSo21NNsdxsz9IsWE/kupCr/D2SMIUNioNzknYux6DjWAj17oCOXNdgR+ZsWkp9QY2go1UXbT2pHHyz6SEP2iNX+vEYMUVV6TVVluN1lprLVpnnXVoww03pI033pg22WQT2nzzzWnrrbemHXbYgXbeeWfabbfdqFOnTrTPPvvQAQccQF26dKFDDjmEunbtSoceeij96U9/oqOOOoqOOeYYOu644+iEE06gk046iXr06EG9evWiU089lU4//XTq06cP/eUvf6FzzjmHzjvvPDr//PPpwgsvpH79+lH//v3psssuo8svv5yuvPJKYuJ77bXXBoRXkV0muExsR48eHZDZRx99NCCwTz/9dEBaJ02aFBDW6dOn04wZM+idd96hOXPmBP/iMlldtGgRff3119TQ0EA//vhjYq8mOwB6O/3/TcI/l/6YqX/e0Esjxw69NHLsEOtk2CHWyXBDL40cN9VWlKqXhmODumax1vAjeX3gnMH6ThqPueQEGgStdRI02C20229+8xtaddVVA7K63nrr0UYbbUR/+MMfAqK6zTbb0E477US77rprQFL33XffgKAedthhdOSRRwaE9OSTTw5IKBNQJp9//etfA8J5xRVX0NVXX0033nhj0It611130f333x/0jjKpfPHFF4NtJpPvvfdeMHS4vr6e/v3vf9PPP/+c36BoTRvjyzUwBJulGl/OjWKxF25sVeNb7GvxdbjulWKBjWQow0Yy3OBHMtxYC+2RHDvWRKyT4VeOsS6VpMmgctfycWYOmszKmV02NjYGw/l++OGHYGgf95p8++23tHjxYvrqq6+IE2HuUVm4cCF9+umnQXLMvS38jh13Jb///vtB0jx79mx699136f/+7/+orq4u6Jl588036fXXXw+GFvJ7eTzM8OWXXw6GFnIvzsSJE4MeHR6OyMMSeXgiD1Pk4Yo8bJGHMqrhjLzmpJ17hUaNGkX33HMPcSL/j3/8g0aOHEkjRoygv/3tb3TbbbfRsGHDgqGTPISSh1LykEoeWsm9mdzjxENPuQeKe6IuueQSuvjii+m0006jCy64gPr27UvnnnsunX322XTmmWfSGWecEZRx71bPnj3plFNOCXq9uPeLe8G4N4x7xbh3rFu3bsSEhHvNDjroIDrwwAOJiUrnzp1p9913pz/+8Y+03XbbBb1u7du3D8hNRUUFrb/++vS73/2OVl99dVp55ZVB5gU9ziussAKtueaatMEGGwS9m1tttVWAd8eOHYPezMMPPzywF/dUnnXWWXTRRRcRE0OuG1xfuB7xENpHHnmEnnjiCeL6yUNieTgs1/PPPvssGP7KQ18LsSBxkaPoE+vkV6Hgn1GQNBmCsJEMN6WF5FIh4bcux+SSn6nYC9ojOcKIdXLsWLNUsa5VkbR8IIUzy9HzcWYly+/E8btxTJaZKPPkM0wamBQzIeb36phMMAHm9+24x4nfv3vqqaeIe6AU8WXi8fjjjwfv7vE7fA8++GBAevn9Pn7PTxFeHiLJ7wIy2eX3A3noJPduDR48OCC6THIvvfTSgNDyUEwmrUxWmaQefPDBwRBPHu7JQz+32GIL+v3vfx+Q0DXWWIOYSJVLryQTQh7yWllZGTzrHnvsEZBBJupM4Jn08xBVxop70YcOHRq8W8lEkO3Af0rwnxRvv/02LViwgJYsWUL/+9//5JXLoonExQKOpQixzgJOSpGKXylieRfDRnIIYSM5dqxZquQSJE1uJ9hIhl055gwgabK6YNUqx4rS1gMu994y8eSJWfi9tw8++CAgm/xe3EsvvRQQlwkTJtC4ceOI36FjMsk9p9zTxQSRyQ73jnKvKPeE8bt53APKPZ/8Hh/3lJ144olBDycTJiaO3JvJPZnbb799QKratWtHv/3tb4nfM2xppHHttdemTTfdNOgF3G+//YJhor179w6ekZ+fe/0YDybdTMjfeOON4D1CJvA89JOT1vgCP4oj4rYPAuCGU5IUCEASKu7HkFy6Y6VLItbpaLhvI9a5YxWXRKyLI+K3X6pYB5LmZxcnaQRcJ5hyhBBwcyAxHmDSyEN8eUgvv2TMQ3VfeeWVoFeSh+HysFueRZR7Grl3kXsUeaIWHi7JPYk8BJaHvPKkMHvvvTd16NAhGM7K7+mtu+66wft7pSaC3MvHw2h5yCe/H8gT2DBh5V5PHurJxJZ793hSGe5p5WHJTPJ+/fVXI06uBaUKuG39zw5XeyTJwUZJqKQfQ3uUjlGSBNqjJFTcjoEAuOFkkkKsMyFjP16Osc5K0vidpJVWWikY/mWHRl4KZ5Zjx5pwZhl+5ejMhSYATH6495CHrHI943c3eYgqk0Ae+sg9Y9xDxj1l3CvIPWc80Qr3pPF7jNyzxj1spSB73Mu4yy67EL/Dx+9j8vubPASW3xOdOnVqcP/8/qppgR+ZkLEfhx/Z8TGVggCYkEk/jpwhHSObBGKdDR1zGWKdGRtbCWKdDR17Gcc6K0njyQs4weL3V4q1IODmhywCrgw/BFwZbpKAy++s8btr/A4bT2jCw0N5WCiTPB4GysM/edgnD/fkYZ78biBPUFMMgsefouB3Dvfaay869thjg5k6uXfu+uuvD+6JJwzizzcUY0Gsyw9VxDoZfoh1MtwksU52JQpmY+X4UIoFfiRDGX4kww1+JMONtUDS5NhZNeHMVniMhXBmIzSpBeVKAPgzBTxjK8/KygSKe/F4GCd/OJ7JHQ/dZLLF7+/xDKQ8KQp/biHf3juetZR75nhyGZ5EhYeN8kflP/7441RbmATK1UZILk0WNx9HrDNjk1YCP0pDyF4OkmbHx1SKvM6EjP04Yp0dH1spxzr0pNkQEpbBmWXAwZlluLEWEpcodjyzKE/uwp/Q4KGZTOr4fTwmXXvuuWfwQfd8iBz39vF7cvx+HH8Dz2WBjVxQMssguTRjYytBe2RDx1yG9siMTVoJYl0aQvZyxDo7PqbScox1IGkma+dxvBwrCj9TsRc0inKE0Sj6Y8ffXORPQ/CEK0zi+PuETLz4W4E83NKXxCnixt9F5BlA4wtsFEfEbx+Jix9eShrtkULCb432yA8vXRqxTkfDfxuxzh8z1ijHWAeSJqsLVq1yrCggaVaTWwsRcK3wGAuXtx9xksYzZz7//PPBpxR4dkkeWsnf0nMhcJtvvnkwiQl/0J7fx0PiYjS1UwH8yAmmHKHl7Uc5N5TnAfhRfgDCj2T4wY9kuOHPDhlurMWxDiRNjp9RE85shMZaAGe2wmMtROJihSe1UJK48IfZeSglTzzCHwJPI29bbrllQNoefvjhos7KCj9KNbdRAH5khMapQOJHTifWhGAjDQzBJmwkAK1Me2k4Vy32gvZIjnAqSePprPm7STwVf7EWBNz8kEXAleEHIi3DDQE3HTeevZKJ2wEHHGDtcdt2222D2SX5w+c8MUqhFthIjiTaIzl2rIn2SIYf2iMZboh1MtxYC7FOjh1rlirWWXvSSnUTYPPyygIbybBDoyjDDY2iH2780XFF2vbff38raeOeOP4UwZgxY+j999/3u5AmDRtpYHhuInHxBCwmjvYoBojjLtojR6BiYoh1MUA8dhHrPMBKEC1VrANJSwA/30MIuDIEEXBluLEWAq4cO9YsVcDlzwnwVP4uPW077rgjnXnmmcH35PjdONcFfuSKVK4c/CgXE58jpfIj/LHrY5WoLGwUxcN1D3mdK1JRObRHUTx89rg9AknzQcxRFs7sCFRMDM4cA8RjF8mlB1gJossrceGPfPO336qqqlKHR/Lw8xEjRgSTmSQ8QvYQ/CgLhfcG/MgbsojC8vKjyE0UaAd+JAcSfiTHjjXhRzL8yjH3BkmT1QWrVjlWFH6mYi9oFOUIo1GUY8eaLaVR/Oqrr+jJJ58MPqC99957G4dH2ggb/EheF+BHcuxakh/l9xRN2vAjOYrwIzl2rNlS2qP8nqJJG34kR5H9CCRNjp9REyTNCI21AM5shcdaiEbRCk9qYUttFBcuXEg8G2TPnj1pvfXWSyRtccIGP0o1t1EAfmSExqmgpfqR083HhOBHMUA8duFHHmAliMKPEkBxOFSOuTdImoPhfUXKsaKgJ823FoTyCLghFj5b8KMoWt9++60TYRs+fDjNmjWLOMks9gIbyRAGAZDhxlogAHLsWBPtkQw/xDoZboh1MtxYi2MdSJocP6MmnNkIjbUAzmyFx1qIxMUKT2pha0tcXAjbYYcd5vQOWyo4FgHEOgs4liLEOgs4KUWIdSkApRS3tlhnexz4kQ0dexn8yI5PWmmp/MhK0viF9tdee43efPPNtPsVl6OiiKELFEtVUTgZK/aCgCtHGH4kx441W7MfuRC2+JDI/NAKtUHSQix8thDrfNCKyiLWRfHw3WvNsS7+rPCjOCLu+/Ajd6ySJEvlR1aS1rFjx+AdiMrKyqR7LMgxVJT8YCxVRQFJk9sJNpJhBwLgjxsTtoceeohOPvnk1HfYPvnkE/8LxDRgoxggjrtILh2BShBDzpAAischtEceYGmiiHUaGB6biHUeYMVEOdaBpMVAKcQunFmGIpxZhhtrIXGRY8ea5Zi48DfZbJOOrLXWWsF32F588UUxeIh1MugQ62S4sRZinRw71izHWMf+VOwFsU6GMGKdDDfWAkmTY2fVhDNb4TEWwpmN0KQWIHFJhcgqUO6JS9qQyP3224/uuOMO+uabb6w4xQsR6+KIuO0j1rnhlCSFWJeEivuxco917kj4SSLW+eGlpBHrFBL+64CkccUz/fbcc89guONmm21mlDHp4rgZ10JiM3fuXNjGUocLibX0XLBRaXxBah/Wa0s2+vzzz+nuu++mgw8+OGdK/4qKCjr//PPp5ZdfbnFxpS3ZKJ+6vDx1YSPEuuVZ/8rl2vAj+JGqyxlmaqafeieNSZpJJt/jy5YtC5KBfM+Tpq+uw+s02XzLGdxSXIfvc968eUV/HoVdvrik6avrlAI72Mjs9zY7wUYy3BhThZ0N30KUqeu4+NHkyZPp7LPPpnXXXTeHsPFkI2PGjKEff/zRGGPgR7L64GOjfOsEbAQb6XUIOYOsPsCPZLgh1slwY59l7PBOmn8PZKoGOzMDXIoFQxdkKMNGMtwwdEGGG2txTOB6V+xFYqNFixbRrbfeSnvssUcOWdtqq63oqquuCr69Fr93+FEcEbd9iY3czpwrBRvlYuJyBDZyQSlZpiXHuuQ7Tj8KP0rHKEkCfpSEitsx9iOQNDesvKTgzF5wZYXhzFkovDfQKHpDFlHAnx0hHE899VQwO2Qmk8khbCeddBKNGzcuK4xYl4XCawOxzguuiDBiXQQO7x3EOm/IAgXEOhluiHUy3FgrlaT179+fevXqRf369ZNfJUUTATcFoJRiBNwUgAzFCLgGYFIOI+CmAGQpbm2xbtasWVRVVUVbbLFFDlnbdddd6eabb6YPPvgAowYsNjcVwY9MyKQfb21+lP5ElH3lw0U2XxnkDDIEkTPIcEOsk+HGWqkkDc4sAxfOLMMNzizDTTkz17tiL7CRHOHWmlxyvRo9ejR17do1h6zxNP5nnHEG5TONvyuiaI9ckYrKoT2K4uG6h1jnilSuXGuNdblPEh6BH4VY+GzBj3zQisqCpEXxKNgenFkGJZxZhhtroVGUY8eaIABu+L3yyit03nnnJX4om6fx51kji7XARjJk0R7JcEN7JMONtdAeybFjTcQ6GX7lGOus76ShoqCiMAIIuLJ6oLTgRwoJv3U5Blx+pmIvpUgu1UQju+22W07vGh8rBlmDH8lqDvxIhlsp/EjdGWykkPBbw0Z+eOnSyOt0NPy3S9UegaT52yZVAwE3FaJEAQTcRFicDiLgOsFkFCpVwC0XkqaA5Od54oknEicaKTRZg40U6n5rtEd+eClptEcKCf812iN/zHQNxDodDfftcox1IGnu9neWLMeKws9U7AWNohxhNIpy7FgTjaIMPz3WzZgxI/jm2gorrBDpXSsUWYON8reR7AzuWrCRO1a6pO5H+vFibMNGMlRhIxluyOtkuLEW53UgaXL8jJpwZiM01gI4sxUeayFImhWe1EIkLqkQJQokxbqZM2cG762tvPLKBSVrsFGiCVIPJtkoVUkoABvJgIONZLghZ5DhxlrIGeTYsWapYh1IWn52StRGwE2EJfUgAm4qREYBBFwjNE4FpQq4HBuKvbQUP3rnnXfo/PPPp1VXXbUgZA02ktUctEcy3FqKH8nu3qwFPzJjYyuBH9nQMZfBj8zYpJWk9qQNGzaMBg0aRCNGjEg7l7gcyaUYukARAVeGHwKuDDcEXBlurNVWY93s2bPpwgsvpDXWWCMvsoZYJ6t7iHUy3BDrZLi15VgnRyyqiVgXxcN1rxxjnbUnrWPHjkGjWllZ6YqRt1xbTVy8gTIowJkNwKQcLkdn5mcq9oLERY5wW491c+bMoX79+hF/Wy2TyWR/ru+sIdbJ6h5inQw3xDoZbqzV1mOdHLkmTcQ6GYLlGOtA0mR1wapVjhUFBMBqcmshAq4VHmMh/MgIjbWgpSeXc+fOpUsuuYTWXnvtLFFj0pZG1uBHVrMbC+FHRmisBS3dj6w3bymEH1nAsRTBjyzgWIrgRxZwUor4zw6QtBSQJMVwZglqRHBmGW6shX8u5dixJhIXGX75xLp58+bRZZddRuuuu64TWYONSm8j3yvCRr6INcnn40e+V4SNfBGDjWSINWkhr5OjB5Imx86qiYBrhcdYCGc2QpNaAJKWCpFVAImLFR5jYSFi3fz58+mKK66gDTbYwErWYCOjGawFhbCR9QJaIWykgeGxCRt5gKWJImfQwPDcRM7gCVhMvFSxDj1pMeALsYuAK0MRAVeGG2sh4MqxY81SBVyODcVeWqsfffLJJ1RVVUUbbbRRhKzttddeVF1dDRsJKw7aIxlwrdWP0p4WsS4NoeRy+FEyLmlH4UdpCJnL0ZNmxiavEjizDD44sww31gJJk2PHmkhcZPgVI9YtXLiQrr76atp4440jZO2oo46iuro62Y06asGPHIEyiMGPDMCkHC6GH5kuCRuZkLEfh43s+JhKkdeZkEk/DpKWjpFIAs4sgg3vpMlgC7SQXOYBHkiaGLxixrpFixbRgAEDaKWVVsqStdVWWy3obWtoaBDfs00RfmRDJ70MBCAdoySJYvpR/HqwURwRt33YyA2nuBRIWhwR9/1UkjZq1Cji32OPPeZ+Vk9JNIqegMXEEXBjgDjuIuA6AhUTQ8CNAeKxi1jnAZYm+uabb9KJJ56YJWo8E+R2220XtE2aWEE2YaP8YER7JMMP7ZEMN7RHMtxYC7FOjh1rlirWWd9JK9VNcIAq9gJnliMMZ5Zjx5rwIxl+SFxkuJVrrBs+fDjtscceEbLWrVs3qq2tlQGVoIVYlwCKxyHEOg+wNFHEOg0Mj81yjXXwI49KoImWox+BpGkGLtRmOVYUfqZiLwi4coSRXMqxY000ijL8Sh3rfvnlF7rppptoww03jJC1vn37Es8Sme8CP8oPQfiRDL9S+5HsLt214EfuWCVJwo+SUEk/Vo5+BJKWbndviXKsKPxMxV5A0uQIo1GUY8eaaBRl+C2vWPfhhx/S2WefHSFqPNHIsGHDZA/SrAU/ygs++JEQvuXlR8LbTVWDH6VCZBVAe2SFx1hYjn4EkmY0t7ygHCsKP1OxF5A0OcJoFOXYsSYaRRl+yzvWTZw4kbp27Roha2rKfskTwY8kqIU68KMQC5+t5e1HPvfqIgs/ckHJLAM/MmNjKylHPwJJs1lcWFaOFYWfqdgLSJocYTSKcuxYE42iDL+WEuvuuusu2mqrrSJkrUePHt5T9sOPZPVAacGPFBJ+65biR353bZaGH5mxcSmBH7mglCtTjn4EkpZr57yPlGNF4Wcq9gKSJkcYjaIcO9ZEoyjDryXFuq+//jrvKfvhR7J6oLTgRwoJv3VL8iO/O0+Whh8l4+J6FH7kilRUrhz9KMOVwfSbNWuWscyk43t83rx5NHfu3JJdh6/ne4++8vw8pbgO3xdsZK6/NrvBRjLclL+Won7DRrCR7sOusW7cuHF0xBFHRHrVtthiCxoyZEhq7Ff1W79uMbbVdeBH/nVcYVcMu+jnVNeBjWAjrhdoj/zrAeMGP5LhprCz9qSdccYZdNBBBxEPGynWgn9c8kOWDVnsBTbKD2HYSIZfOf4rxs9U7AU90k0I8/c9fafsR6zLr3Yi1snwQ6yT4YZYJ8ONtRDr5NixZqlinZWkdezYMfg3srKyMr+nsWijoljAcSgqVUVBculgDIMIbGQAJuUwEpcUgAzFSFxCYExT9l900UX0/fffh4LNW2iPciDxOoBY5wVXVhixLguF1wZinRdcEWHEuggc3julinUgad6mSVdAwE3HKEkCATcJFbdjCLhuOJmkShVw8WeHyQLpx/OxUdKU/bvtthvV1NRELgw/isDhvZOPjVwvBhu5IpUsBxsl45J2FHldGkLJ5cjrknFxOcqxDiTNBSlPGTizJ2DN4nBmGW6shcRFjh1rInGR4dfaYh1P2b/ffvtF3le7/PLLadmyZQEA8CNZPVBa8COFhN+6tflR2tPBj9IQspfDj+z4mErL0Y9A0kzWzuN4OVYUfqZiLyBpcoTRKMqxY000ijL8WmOs4yGQAwYMiBC1vffemyZNmoQ/O2TVIKsFP8pC4bXRGv3I9oBoj2zopJfBj9IxSpIoRz8CSUuydJ7HyrGi8DMVewFJkyOMRlGOHWuiUZTh15pj3fjx42mnnXaKkLWBAwcSYp2sLsCP5Li1Zj9Kemq0R0mouB9De+SOlS5Zjn4EkqZbuEDb5VhRkLjIKwcCrgw7+JEMN/zZ4Y4bf1vt7LPPjhC1E0880f0EQknYSAgchnbLgWvWRHskgxDtkQw3xDoZbqzFf3aApMnxM2rCmY3QWAvgzFZ4rIX459IKT2ohEpdUiBIFyiXW3X///bTGGmtkyRpPKvLjjz8mPnMhDiLWyVFErJNjx5qIdTL8yiXWqaeHHykkZOtS+ZGVpE2bNi1w6E8//VT2FA5aqCgOIFlESlVROEAVe0HiIkcYfiTHjjXhRzL8yilxeeGFF2iTTTbJErW11lqLPvjgAxkwKVqIdSkAWYoR6yzgOBQh1jmAlCBSTrGOHw9+lGBkj0Ol8iMrSSvVTYAAeNSMmChsFAPEcRcB1xGomBiSyxggHrtoFD3AShAtRazj4Y8777xzlqhlMhmaOnVqwt3kdwh+JMcPfiTHjjVL4UewEWykEECsU0j4r9mPQNL8cUvVAAFIhShRAM6cCIvTQTSKTjAZhZC4GKGxFpRrrDvmmGMiRO2TTz6x4uBbiFjni1goj1gXYiHZQqyToEbBhEJc90qxwEYylMuxPQJJk9UFq1Y5VhR+pmIvSFzkCCNxkWPHmmgUZfiVc6y79tprs0RtnXXWocWLF8tAStBCrEsAxfEQYp0jUAYxxDoDMCmHyznWpTx6XsWIdXL4ONaBpMnxM2rCmY3QWAvgzFZ4rIVIXKzwpBYicUmFKFGg3GOdTtS6dOlCS5cuTcTB9yBinS9ioTxiXYiFZAuxToIaetJkqBEh1kmRc5jdEc4sA7fcExcZKulacOZ0jEwSSFxMyLgdR6xzwyku1RZinf7h6+7du8chEO0j1olgC5QQ6+TYsSZinQy/thDrZMjYtRDr7JHi30cAACAASURBVPjYSjnWoSfNhpCwDM4sAw7OLMONtZC4yLFjTSQuMvzaSqz785//nB36ePvtt8vA0rQQ6zQwPDcR6zwBi4kj1sUAcdxtK7HOEQ5nMcQ6Z6hyBEHSciApzAE4swxHOLMMN9ZC4iLHjjWRuMjwayux7ssvv6RNN900IGqbbbYZffHFFzLAmrUQ6+TwIdbJsWNNxDoZfm0l1snQMWsh1pmxSStJJWmdO3emFVdckTbffPO0c4nLEXDF0AWKCLgy/BBwZbgh4MpwYy3EOjl2rLm8Y93QoUOzvWmXXXZZXg8DP5LDBz+SY9cS/Ci/u49qw4+iePjswY980MqVLVV7ZB3u2LFjx6BRqqyszL3DAh1BRckPyFJVFCY1xV4QcOUIw4/k2LEm/EiGX1v6s4MnDdlxxx2DNnGVVVaht99+WwYa4WV6MXD4syMf6AJdxDoZhG0p1skQStZCXpeMi8tRzutA0lyQ8pSBM3sC1iwOZ5bhxlogaXLsWBOJiwy/thbr7rzzzmxvGs/8KF0Q66TIIdbJkWvSRKyTIdjWYp0MpVwtxLpcTFyPgKS5IuUpB2f2BKxZHM4sw421QNLk2LEmEhcZfm0t1i1YsCBL0nikiXRBrJMih1gnR65JE7FOhmBbi3UylHK1EOtyMXE9ApLmipSnHJzZE7BmcTizDDfWAkmTY8eaSFxk+LXFWLfTTjtlidrHH38sAg6xTgRboIRYJ8eONRHrZPi1xVgnQyqqhVgXxcNnDyTNBy0PWTizB1iaKJxZA8NzE4mLJ2AxcSQuMUAcd9tirDvttNOyJG3EiBGOSEXFEOuiePjsIdb5oJUri1iXi4nLkbYY61xwSZNBrEtDyFwOkmbGJq8SOLMMPjizDDfWQuIix441kbjI8GuLsW7MmDFZknbLLbeIgEOsE8EWKCHWybFjTcQ6GX5tMdbJkIpqIdZF8fDZSyVp3bp1o0022YR4Kv5iLQi4+SGLgCvDDwFXhhsCrgw31kKsk2PHmi0l1j3wwANZknbvvfeKHgp+JIItUIIfybFjzZbiR/k9RZM2/EiOIvxIjh1rlsqPMmwo02/evHnGMpOO7/Fly5aRSph9dX3k1XV47aMnkeXnKcV1+N5gI3P9tdkONpLhBj+S4cZ1UWFnq5eFKFPXKUUMaot+1KdPnyxJe/TRR0XtCWwEP9J9vS36kf780m34EfxIrzvl6EcZfijTb+7cucYykw6Om/EsBjawUWnxltgQNoKNJPUGOtF601L8aNddd82StJqaGrSRWg7RUmwE34n6jo4HbGTGRsdpeW7DRrCRqn/W76SVqjuPb6bYC7rF5QjzPxWwkRw/+JEMO65zXPdKscBGMpTbmo2++eYbWnHFFQOStuaaa8pAw8esxbixItqjvOAr2TAt5AxyO6E9kmFXju0RSJqsLli1yrGiIOBaTW4tRMC1wmMshB8ZobEW4A8pKzzWwjQC8OSTT2Z70XiWR+kCG0mRA0mTI9ekifZIhiDaIxluiHUy3FiL2yOQNDl+Rk04sxEaawGc2QqPtTAtubQqexTCRh5gxURhoxggnrvLO7n8+uuvadttt82StOeff97zCUJx+FGIhe8W/MgXsaj88vaj6N3ktwc/kuMHP5Jjx5ql8iOQtPzslKgNkpYIS+pBBNxUiIwCCLhGaJwKShVwOTYUe4EfyRG2+VGvXr2yBG2PPfYwXKSexp6QycplMr7b3WnswuZTLxxL3ZX+CWOpPnLFaTTYWBYRDIaq83OVYoEfmVFufL+aBp/ehTpv2VwnNJu2rZxBq7uZwTTNDFlqSauKdZo/d38k6s3xBy2aH00fnI1Nxzz0Wat8jaX+ke7ZZ4jj+NPL1xjLSHv2uF4cf5f9otlIuzjHbZA0DZBCbbatgFso1IhaVcD1eOxSOTMIgIdRYqKwUQwQx922EuuGDx+ebfyZeE2fPt2AUMsgaQ3TR9GwocOC35Oz8G6nwVjWwwVtj2YOo86KVKt12ZK0+TR+yM005IYhNGz0NGrIQRkkLY0kFK090ogKSFpOxfQ6UDQbaXeRStImTJhAr776Kr3xxhuaWmE3bf9cFvJKBQ24KTfWVhKXFBi8i2Ejb8iyCvCjLBSijVIFXBBpkXkCpeVlo4kTJ0YIGr+XZl6iJK3PP2qpdnLub1LtJHr2uWeJ19HyOqpvbD679s97Rkvom0q1RDenjEj/t/mal0HSzPYylxSyPaq7rUO2DnU+fSRVc514q56UqcsrZ5hG1yUQ0RBpre6iJy2ERdsqWqwDSQv8MI0ka6YwbhbNRtoVU0lax44dgweqrKzU1Aq7ieQyPzxLVVGQXMrtBBvJsCuvxAUTHshqQai1PPzolltuySbX3IM2ePDg8IYSt6IkbbChwy1/AqAluiBpiZbI92D+NgrvYNr1athrdxq7IDyutsor1qWRNPXU+a8LaaO0u8nbRtqfLmkkoWixrgxIms1ObW64I0iarTqYy/J2ZvOpc0qK5szalUCkNTAEm7CRADQivEsjgw3DhoW4sZoe684777wIQTvkkEMczgyS5gBSXiK6jfI6UYpyIQlAhKSpdw6165dXzgCSppk23ARJC7Eo0hZIWhGAbY0BNw2G8gq40cQl7dnzKS9ko5h2H7BRGkLJ5bBRMi4uRxHrXFAyy5Tyzw6eXl+f9KNfv37mG4uUgKRF4CjCTmv0o5Ck9adaNcZRw6a82iOQNM204SZIWohFkbZA0ooAbGsMuGkwlFfABUlLs3daeSmTy7R7ybccJE2OIGKdHDvWLIUfvfvuu3T88cdnCdqqq65K9913n8eNF5CkaUmd2ztp0WvrJLNpW5tJTxv2pIZkNswaS/2P3I4q+H2ihCGUAQj102js9X2oS6f2WYzad+pOfUfU0JzFFhtJr5eAfNyPGubV0Mhzu1OXHSua76mCtjuwDw1+ZFr4fl/CeULiFOLSMKuahp3bPZyBsd22dOBpF9OoyfbZ+BJOT0TakFT1jpa+1jCO5AyM8dC+1F3DuGLHLtT93JFU837uNBzhtbXrXa/mTGygOeOGUd8TOlP75mtvuHVn6nPpKKp1eaSG+VQzwvFeNBvn1r0MhUP8tPtMeSetfvrYqD0ybNuwvpnao/CdTG221PpaGnVpH62etKfOJ/SlYePmJExuEqKqtiI2Ugf19eI6qo7YTauHvxCR5s8hFvoJmrd/qad/3X4x9TkktFlmy84O9k84V/yQZiPbxCGNC3P9PFOxHXU5oS9Vja6h+bZqGLtmaKNvqfp0New3Q32fTjtJA9Wcq+Q70LCZTScObavXqaaywpC0Bpr/7Ejqe0IX2q6i+fr87KcPprHTw/dIS9Eecayzzu6I4Y6x2ua4m+rMjudxEStVReFnKvYSOvN/i30pDKUTIgwbCYGLDaWTnyVdEzZKxygu0djYGLxvts4662TJR6dOnej111+Pi6bsR4mSIkBxJScbaUldLmnSEt1ssh+9dm6iHJIRfTrqwdMbac49PZrImSIR2XOqO2+guhHds4l+7rk5mWlPh179dHLCqyWHbtdT181dZ0naL/Opul+X6H2r+1frii7Uf9z83JMwhcq+J8a4NFDtQPu5Ol8/LTvRR+IJcw5qNlL3o681jJtyhu8dMM5Q+9NH0Zwfci4WJYVM0hbXUtWBiriqZFdfdya2hWmZP64/dVFJqn7f2nbnC2ooi65m46T6ERITHRetTuo38kMdjTwh/CMg6Xxc3864bzYt+emnYIi3rh4m8kzSGmnO6D7WulvRe2z4HPqJtG1bXtfwQpUVq4oDB9O098NPaoRYaBcgooa3RlJ39YkGDWf9+dufMJLq0vhN9LThnmajZJI2n2rSfIrvi/3q6azlw/MnbOmxrmFcn2x8zZxbkxwr1DkaaqivwmCXYVTXfDy0bRFI2oJq6m/1mQxVHNifqhdY/pBS91+ANUhaAUBMOoXNmZPk8zkGkiZDDzaS4aYHXNkZ3LVgI3esdEnYSEcjfXvs2LHUoUM4+x4nRBdffDH9+OOP6co5ElGiVFqS1kj1bzXNJFk9sEs2GTpt+LM08YWJVDtZ6zHQkrXuvZsJ2pbdqO/QsVQzuZZqXqjTEqhGmnZ95+z5Miw3cFTTDIXPjqWRl/YI/3HOZCiRzHhdLwfUyIEmkjaHxvYOCUjFjj2o/4ime68dN4qqzu2mJeUV1OOR3IQyJGl9abB6Pg2DSTUP05DTD9BIYAVVTTaTmshNBjsNNKd5Zs+Rf1HkqA+NVLN9RmZ3XEKvXtMpxLhiO+pxaTPGk2uCnrVuevLeaTBNyyFqGvm5YDAN7tR0zfaH96Vhj9QEs4jWPDKMTui0oXadqsThl/Mf0Ul7e+p+6Uga+yzXrWoaNbBPhJB0vrGuibwuntM8U+lIOl0l14dUNdWTybVUt1Bhp91nUk/aD9Oy986+GNh2dHXTuZ/lnjXdthnqOPAlWvrf6B+7YSLfnaqub36WCKbVNOrS6J8O3Ubn1hHdpqb2qPGtwZHPK+h4V4/unyVdFZ06U4dmXJJIWuN0/Tx/oG7nVtGocYx5DY0d0Z96ZHuKM5RJtL9+t4ZtzQ+TSFrdbZqfV3ShPsrPJ9dS9egq6nu4Tpw7Z3u3DFcLDkfaI514ZZKH/qpzNTzdN1tPdduEti0wSVswlnpk/5SooO1O6U8jm/0m59kretBtL3+kbrVoa5C0IkFrcuZiXA4kTYYqbCTDLRJwZadw1oKNnKGKCMJGETiMO1OnTqXu3cMPo3JCuPfee9P48eONOukFy5OkhXenJzKJU/BryVqQCPc29c4QcbIUDIHkhJl7HHjoVnxpqKNhRyrSlEBmPK4XP3V8nxOX6Tc3zTzN986kMLFjYUE19W0mKplMNxo1L3qmkKQ1kZn4syk/mn3H4dlkMXNprWdvWtM1w2sl9xwtmTSAdlHEhhPwpAf6pZ5qrgiT6Iqce9HJDz9TBfV4MJd4fDR3Io08XJHGDPV/QZGnZnzmjaJu6l4qeiTORkmLa6j/LuoccWzT3knT7zOORyNNGxj+YWK0bX0NVWVt244unrg0Yly9/nMdCUhNAqYNz/bP1u3MIaOsvWnJ7VEdDcveRzLexD2+F4R24/vJIWmLa6ivIghGAtBAdbd1y95vxRWCuqj5YQ5Ja6ylKnUPpjpIRPMfDAl8xY2qfysCf2RH+RGviRqp9goVJxLqXlazQRvqGK1fum3jOMqHO+p27EyDX0uoLPzs4/qGhHz/Idb6kn2UPDZSSVr//v2pd+/e5P7StP/dNP0rhqF0/sg1aYCkyZBLDriyc6VpwUZpCCWXw0bJuKQdjTaKadL5lbdGG02aNIlOPfXUMPHOZGiVVVah6667jn7++edgKLQclShJCxJElfCmrbPvETVf3Xu4Y3jXeiKTTtL6UPXiUDey1TiNBqtkPO3f+4Vj6VD1jKdXR4mTlhxmMpbrRS6evPOfBQ/S0c3XSRumxr0Tqveiw9BoQhkSp+SeiawfLZ1E/dVzacOuku8u+Wh4rTgpYfn59I+uJsITP5+eTEaT1/g7cIk9ms3vdja+0D9b/zvcpuOiJ9EV1veG9KFrPR7XX3DLg6TpBPFwO2ki/QPhh90bSZj1+p8xEc0A2vk06hCFfV+qSc7NA8mkWKdj0GGgbTisbrc4SeOeakVMm4agmnMGPb4I/EjzwxySNnNY1lf6jLMA0Vgb+kPOHwXx+ko5sw03Tq7KEk3jnx56j1sslui2LRRJC8+Z3OsePpVuq+2dehJDXf+tVJJmrij+FzNpgKSZkHE7Dhu54RSXSgq4cZlC7cNGMiRhIxlu2eQyNgRIdja7Vmuy0aOPPkrdunXLJqeKQB1xxBE0fXrTB83yb4/0JEolf47r5UTSbP/I6wlVPCHKrRkNNKqnetZYwqslh7br5Z4z98iH96qerQoyDScNtepomCKZMYIVEqd40tykHfrRRzT2WPVcSSQrvJppK7xWgv7MYbSzIoEOSW+YUGaoe6SnTO+h0ibMiN1U0B4tCN+Pyuj1Tk+OY3jFTkOkJ+sD1UQlLCUnafpHv3N6+HJuoJ4ePl7Z5dhIj5+OUYX+fDnnIJo2UJ3DjBmr5ca6BmNvT8JlIh+Yj/iS3oPV/J6iLWfQhwGmT74RuxPND3NIWna4am0wCVBMU9vV6pn2XqUmENkM/UgNSZ1Gg1WPXUXycFv9GeOEUbdtBEe20cvXZON7vEx/DzdaNp9GqZ7ligT/jDwNEf85kP3jJ/IHR1ww/32QtPwxTDxDrjMnihXkoM2ZC3IBTHiQN4ywkQxC+JEMt9xGUXYeF62WbqPvv/+eRo4cSXvuuWe28VbkbL/99qNRo0ZFHrPQJK3PP5reEatV7yE1ryfVTqJnn3uWeJ0ti8/cV6KetGjCEoGD6m5UQ5PC2dWiEtG9l4cd2oxzTF5LDm3Xi54taa+eHjcRwSRxpgzZJDxKHEPilEkke6EfLaKxJ6hE3iGJS7iP8Fq5+vMfDIfcOiXd80ZRl0RSpyXPSe96Nd9X0B7pdUsnMZqdMhHilfBQxkNSkjZfI8NRW5ku9dHdB2b9Wid1tkQ+fq7QNp4kTSepKUMlg2tqdov4wFuDsz1LqlfTmjNoBFvJx5/JuK/ZN4ekGZX0gkaqf7p/lqTkTmikyzZth36kSBpR3VDVc5gwNJp08pv73prNtiKSVl9NPZQ/pU1mEjzSNKryks/FxPUISJorUp5yLT1x8XycyAdefXV95JOc2UffRxY28kErlIWNQix8t/InAG5XhI2I3nnnHbr22mtp8803zyZxipzxe2hPPfVUIpj52yjak2bq6XGykZ5I5/xjrSXkOWUU+dc+bbhjJGGMoFJP1b0VOfFfR55dSw7N14tc3LBTR9epf+FVouS8jibhacl5aKPikrTwPg7MeW8uEQRjvbDXCXUuG0mzJcBKP30tJWna/buQHiJaNPbYrH/r9Up/jkg9TLj5EP9o/YiL5uQMGlkyDtvTT6KRgci9Pt4j+wwqRjmvdYKtX8u0rfmhlaT9MJ/qgslChtGwgX2p+yFdtE8XaLEgIfbELx36UUjS9N6onJ71xdXUp9mnc8ooGtt0HPm6IpKmkWRn3FXMcXj+OB4++yBpPmh5yOY4s4eur6j1Hxffkxnk809cDCeOHU505phMoXZhIxmSsJEMN9aCH8mxY820WLdkyZKgZ4yHL8Yb29VWW43OOussmjJlivUm8rdReZG0sAdJS8xUgpKyjiTHWnIYT6ysBskp1AhAyvXjdSCTiSbhacl5GOtKRdKOobELcx4490BbIGmOye9yJWlanY4MGc21WPORkITqPqATytw6m+J3hSZpi6fRsFOav5WY6F8862H3cGIZBzuFfqSRNNLeBYwNMQzf80sezqzjpePIIItImm7HxGe22MDh+Y3VwaEAJM0BJIkICIAEtdwXTGVncdOCjdxwikslB9y4VGH2YSMZjm3NRhMnTqRzzjmH2rVrl0POKisr6corr6QPPvjACUyQNB0mnXB2oarHk4duZodrTq6lhx5+KDt8kz9unV20RCieWGVlnDZ0kqZNZx8bTqrfU7hdF/m4NUhac/KpJfq2BNjJPIGQZqPEJDYkK5nIsEzteKJe7h20KpKmve+n+4COeZeBTZ8a0P0orL8J/hcfIp0LUfSI5oc5PWmRKej5W2j8Aef+NGxo8+cXZs6nhuCzD352MrVH80er94N1MtYQfvDa8E6kjpeOIz9o3iTtLyOz8cuKu4p12mc0okAXZg8krTA45pwFyWUOJE4HTM7spOwpBBt5AtYsDhvJcGOt/AmA27Xbgo3mzJlDN9xwA+2+++45xIz/jT7yyCPpgQceoKVLo1NzpyGYv410YpP8rhPfg5ONjD0mfAZ7oqQnMoUZ7tjFaSiesbdTSw7jiVWaTaLl+nDH3PdVorL2vZZH0nZxmy1Om7gg2oNjrxMKjVYx3NGQoKtnUOsZt6p3m6K+ptf/SI+uUtTWafVAiebkDFb/VFraWhseqftAvTbcscs9TZ9MMPqRdjrRpuaHUZKmkaNMBXW7bRo1JH1qI7ioWz1T92eMddpMntnJXbShjqb37XTb6jjy9UQkTR/u6DBxj3quotlIXaA5Z8ho+zmbpboJrvzFXowVpQgXznHmIlxDnRI2Ukj4rWEjP7yUNPxIIeG/zp8AuF2zXG3EPWa33347HXqompwiOgxl6623DnrN6ur0KcXdMFNS+duonEgakT7bnsukFnUTVU9atNfKPLOaQt513UDjz1Z2j01OkniK8APfkY95M829Xp0nOgxSnSb0o+IOd9QnDoknnepe9HXYA5Gh+NT3g9VwLUtPVJAz6ARD60mj16rCPz3SJg7hzzPwu0r8i8xyJ+1J0ycOSbaJjgN/uuDew5QNT6Fq7SsAeiJfNJJG2gQSKR9m5vvWP3sQsbNOupsnrrDmddosjOEHwqPIGPdMJE3r5Uv7Xhxp79ZJJw5puj+NGDaT8nCoY/zzEuET6baN4Cglafqzu/w50FgfvK8X9Hb69mSGj+G0xe2RlaTdcsstdP3119Pw4cOdTigRyr9RdLtqGHD1cbFuur5SIAC+iDXJw0Yy3FgLfiTHjjWtjWJ+p85qw0ZZKJw3eAKQoUOHUpcuXcLkUSWizevjjjuO/vnPf9Ivvxj/+nW+Xv42Ki+SxuRKfcg6E/teUS6o82nI/s1JczzZ0ZLDeGKVex77kc8eOiZbF+LfPsvR/KGW+quJRmL331JIGs0bRQeoOp32bTB+l0dNF57zgW63Hg4rSdNnLDRMj64wbny2b9YOUQIvJWlE8+8J/bzb6NwPcatrB+t5o+hwhZvlO2nFI2kN2hT8FbkfBY/crEZIcj5mrU1J3/wNQVt7NP8eNUzQ5U+KyE2Q/mdJpCfNRNpj6ryr2z0/kkYUkjJ+lvpwqKPFDwpO0kiP2emYMtlWMTH+eYAEuPI6xO2RlaR17NgxcEIe11+sJf9G0e3OQADccEqSgo2SUHE/Zgu47mexS8JGdnzSSmGjNISSy4vxh9SMGTOCoYz77rtvNgmMv1C/1157BbM3zp49O/nGhEfz9yO9wY8OwdJvyak90hOnnJ4Re0KuJzLy4Y58x/pHeJs+tKs/h749f3Q4lXxOgl1AkvafL8bT2e2ayaD1Q8UNVDtQDYfLneq7xZA0qqcx3VWPkP1juvz9KJUgVuRMF26vE8pWVpJG+sd6M9Stefid0s2uf5hGgzupe45/VFlO0kiv8ym2rTlXfR6iHZ03/tvsrfGGXv+LR9KI9I+lZywfe298rSqctj6HpHGPdedsrOOPkL/30UeR58nuLBhF3RUxtRCZrHx8Q/PDCEnTe8cOGUlz4npqf0E19VXfHeT7yIlLSjBcW2Od1ovVoV//7KyONvKj2zb+h49ouCMRRfyq99jIh9HDJ2HBWqpSz7/heVTbGCkt+A63RyBpBYc16aOHRbhI8ymRXMqwLUZyaboT2MiEjP04bGTHx1RqbRRNSsLjhbBRY2MjvfjiiwHp6tSpUzZZSSJmN998M82cOVN4t+lq5ULS9I/Btus2gB58eiJFhvtpyVo80YmjxIloZ5UYVnShqnFzou+rLJ5D1QO7ZMkDJ6t18eTF43rx68f32UZz7j8pvN6WfWjk9HrSL9m4cBqNPL19ti5V9K4mbTRccMqWQ9KIfnp9CHVSGGfaU58R0yKTnFBjA9U90lezQ4/Ix5ubMCoESSOixTXUV/U+JtxL48JaGnykIkgZ6nxjXQR7JvY376wIXGfqM6JpMoxwaJ52n5GJQ5qeQicsmSTbLq6jsReEpKZdjzH00X+jI6T0RL6YJI2Cb3qFWFQcWEXV+hC4XzS7VVRk62yOz0VIbwV1Pv+O6Aelf2mgOeOqqEvWLp1p8Ft6jY97iWFf88MISYv00Gao8wVjaU5DeI7GxXOoZkSfputXtKf26j6OtRCaZnV7e9RItZequqLWcdIf3gdv6baN4yglaTx0dmzv0I7tTx9J0xbq+DZS/fSR1GdLdY8VdNTfp0dvrAh7AUljAE0/vSfNJJPv8WXLlgVfcs/3PGn6PBSGEwpep8nmW87X4efK9zwu+vPmzSv6dWAjs4/ARvlhY8MPfiTDtjXEuunTp9OwYcPo2GOPpfXXXz+bTOvEbNVVVw0mABkxYkQwO2PriHWL6OHjVUOeoUFTk23oZKNPH6ZjVeJ+/MO0KNJWT6FBxrL/0n+/mkDnqURKyWUG0RR1jqmDspgfO3ZRahvy0fjzQoKQPV/4nFm7bXYCPfFxwjN7Xs8WF5raoyU049bDs0lv9voJ91ZxwCCa8l3uPU25Tt3/sfTwp7nloY0WajbVMFRYOqzDayXrc6ybO+4cN4wznWnQ1KUJNkupE833GfiRXreum5JzrqVTB9GBOfVH4RWuK3o9HBCkuL3euCX3z5awnmn3qdfJLI4f0YTzQxJms22m4/X00te5eZ0+66PJB9U9h7ZJrgdKztgefTeDbvlTmOAn3y/bbELWZ0MstHr38QQ6L9s7GWKce772dMZjH+XYTN2nda354TEPfhbJvZe+MSi9/lUcSIOmfkQTzondX0IdUvcR+lFy7r209sqoH18yiZZm64KGT/Mx3bZxHHWSFi/7r/bsOWV8bic78nNX0IE3TKHZJcq9M1zxTL8999wzCOSbbbaZUcaki+NmXAuJzdy5c2EbSx0uJNbSc8FGpfEFqX1YDzYqro2492vkyJF04oknJk6VrxKRddddl44//ni66667iJNJ3aatw0YLtKFrGeKhhvozeG3PG0NHK9LRfQwtiMS5l+gaY1nTNeun3E6n7VnZTMba0bb7307T1TleviZL0o6+f4HTPS6ZOYYu7KrOF0vSMpV0aL8x9OxbhvZIcD0XrOonDaGTts/99EJQn9ptSyfd8Cwt+D7ZBi8NVM9wNI2ZlyzTdA+6Ta+hlxSGHuvwWnb9+hk2jDNU2X0IPbvAdK/pdYKfJ/AjGCvWzwAAGbFJREFUvW4NfCnZ/u//02zvANuXqN6Ewfdz6J/9DqVt1bDULTrShU+oeqbdZ8aERz3V3X8hHbqFslF8XUlHW2y74P6js/U7zQdD26TVAxPuP9FP3y+gJwceSpXKJ7V1u/0vpDEzl9BPP4XPbfS5r+toTL9D6Q+avoqNvK7seiGNmVGfbC+TLfTjKX7IMePoRMzb0QEXjKG6+iYMlky5hjrq92iqQ/q1jdsv0TWqnmTa0YDnGCsz1rptc3C0PZ+tLHu9enrphpPCeqs/YyZD7bY/iYY811SPS9UeZRTbTVqjJy2XxSfhFD/GFQw9af7Ypf3jEsc5n33YyN8+jDdsJMONsWtLPdLcgI0ePZp69+5Nm2yySTZh0hMO3l5llVWoa9eudM0119Bzzz1HDQ0Nxn+IW0dPmlv9aM1+tPSr2TSldhJNqJlAk2on0aS3P6JvlzY99/Ky0dKPZwT3ou5pynuLaOkyN1uY2pHlaSOF8aSaCTSBMZ46mxYl9Aaa7t123NdG6l58sC1crFtK3743xWjb5WmjRIy/+4hmaL4x4+OkHs/0ejlv9ts0e+okytq/dgZ99K3sXIn3aW2PFOYTaEKNue4t/XRG9v5mLDI/U4uzkaWXLovVsqX00duTaFJtMwa1U2j2oij+vn6UPbfL9Ztl2I/wTloRxpEyAeCxpKVY8L6TDGXYSIYbBxrGjtfFXmAjGcKlttGXX35Jzz77bPBO2eGHH07rrbeekZQxMdtvv/0C2eeff56+++4754dErHOGKiIIP4rA4bxTaj9CzuBsmqwgbJSFwnuD6xvHhmIvsJEc4eCdNJu63pNmk8unDBUlH/QwdbgUPSQuMuQQcGW4sVa5xLrXX3+d+D2xnj170hZbbGElZEzK+IPTAwYMIF9SFkcaJC2OiNs+Yp0bTnEpxLo4Iu775RLr9CeGH+louG/Dj9yxikumkrT77ruP+PfYY4/FdQu2D2fOD0okLjL8EHBluCHgynBjrdYY695//316+OGH6YILLiD1p118yKK+v8IKK9A+++wTkLLx48d79ZSlIYtYl4ZQcjliXTIuaUcR69IQMpe3xlhnfpqmEvhRGkLJ5fCjZFxcjqaStNbYKPI7DQsWLMh5flSUHEicDyDgOkOVKNga/SjxQYiCYY7cWLE/FXtBoyhDWBLr2MfffPNNuvvuu+ncc8+lzp070+qrr57aS1ZRURHM0HjrrbcSz9hYzAV+JEMXfiTDTeJHsivhsz1S3GAjKXKt80/DtKctx1hnfSetNTWKTM6uvfZa4pkoeTu+wJnjiLjvg6S5Y5Uk2Zr8KOn+9WPwIx0Nv+2W4kfffPMNTZo0KZgCn4cs7rDDDqlkTPWW7bzzzgGJe+ihh+jjjz8O3mng5yrFAj+SoVyOiQs/U7EXxDo5wi0l1smfIFcTfpSLicsR+JELSsky7EetnqQpcrbOOusEiQbPEpa0oKIkoeJ2DAHXDSeTFJJLEzL242gU7fiYSvVYN3/+fBo3bhxdffXVdNRRR1lnWlRETK35D6+jjz46+PPrhRdeoB9//DHnkrBRDiROB3QbOSnkIQQbycCDjWS4sRZyBjl2rImcQYZfOca6VkvS4uSME4u11147sReNzY2AK6v0rIWAK8eONRFwZfiVY8DlZyrG8umnn9LEiRNp+PDhdPbZZwczKHI8VIQrbb3TTjsF0+XzsMXJkyfTkiVLnG4TNnKCKUcI7VEOJM4H0B45Q5UoiPYoEZbUg4h1qRAlCiDWJcLidJBjXasjaUnkTCUgpl40RgMVxalOJAqhUUyExfkgGkVnqCKCaBQjcAQx7L333qPq6moaPHgw9erVi3bbbTdac801ncnYGmusQXvvvTf17duX7r33Xnrrrbfo119/jV7IYw828gBLE0V7pIHhuYn2yBOwmDjaoxggjruIdY5AxcQQ62KAeOy2KpJmI2dpvWiMCSqKR82IiaJRjAHiuYtG0ROwZvG22ijyt8PeeOMNuv/+++nyyy8Phhxus802zkRM/WnFk3ocdthhdMUVVwQz9PIHpgu9tFUb5Ysj2iM5gmiP5NixJtojGX6IdTLcEOtkuLFWqyBpaeRMJSS2XjR+WFSU/CoKB6hiL7CRHGEkLnLsWLPUiQv70+zZs+mZZ54Jhihyz9ZBBx1E/+///T8vMrbWWmvRrrvuSieddBJdddVV9OCDD9LUqVPp888/D2JefqikayNxSccoSQKxLgkVt2OIdW44maRKHetM91GI4/AjOYrwIzl2rFkqP7IOdzzjjDOoS5cudMopp+T3NBZtU0VxJWcuvWh8eTizxQgpRSYbpah5F8NG3pBlFWCjLBSijWIE3EWLFtFrr71GDzzwQDD5Bg9P5KntfYnYKqusQjvuuGMw1f1ll10WDFN85ZVX6Isvvkh8VvhRIixOB+FHTjAZhYrhR/GLwUZxRPz2YSM/vJQ0/pBSSPit0R754aVLc6yzkjT18dLKykpdr6Db8YDrQ85ce9H4hlFR5GaL20h+JrsmbGTHx1YKG9nQSS+TJC7x3rALL7yQjjzyyGBKe5dvjKn4pdZbbbUVHXHEEXTRRRfRHXfcQS+++CJ98skn6Tcfk4AfxQDx2IUfeYCVICrxo4TTWA/BRlZ4Ugtho1SIEgVA0hJhST2I9igVIqMAx7oWQ9Ik5My1F40RQEUx1oPUAjSKqRBZBdAoWuExFi7vRvGrr76iuro6mjBhAt1zzz1Bb9ipp55K++yzj3dvGMeqddddlzp06EAnnHACDRgwIPhwNBMx/t5YIRfEOjmaiHVy7FgTsU6G3/KOdbK7NmvBj8zYuJTAj1xQypUpRz9a7iTt66+/pqqqKlLfOVP/Kruu095FU2ZE4qKQ8F8j4Ppjpmsg4OpouG8XK+DyxBxz5swJPujM73ANGTKEmHwdd9xxwXDETTfdlFZaaSWvd8NUvNp8883p4IMPprPOOotuuukmevzxx2nGjBnBlPbwI3fbJ0nCj5JQST9WLD9KujJslIRK+jHYKB2jJAnkdUmouB1De+SGk0mqVLFuuZE0ac+ZSoZ4bfsuWhxYOHMcEfd9OLM7VkmSpXJmbuiLvbRkP/r555+JP948ZcqUgBzdfvvtdOmll1LPnj3pgAMOoK233pp4og09hvhuc28YT3sv6Q2DH+VXO+FHMvxAAGS4teRYJ3uiJi34kQw9+JEMN/iRDDfW4pyh5CStEORMJVauvWj8sKgo+VWUtk4A5OhhCJAUu6VLlwazFM6aNYtqa2vp0UcfpREjRgSzGPIHm4899thg6CGTL2lPvIolq666KnEvGA9lPPHEE4P3woYOHUoPP/xw8HHnDz74gL7//nvpowR6IGl5wYehdEL4kFzKgEPOIMONtRDr5NixJoi0DL9yjHUlI2mFJGecWPn0orG5EXBllZ61EHDl2LEmAm6I35IlS4gJz6uvvhp8lPnOO++k6667js4///yAHHGP1w477EAbbrhhXj1einytuOKKtMkmmxBPgsSkjqe6v+GGG2jMmDE0ceJEYgL47bffwkahiby2yrFRxB9SXlUgIoxYF4HDeQd+5AxVRBB5XQQOrx3kdV5w5QiXKtYVnaQVmpyp5MunF43RhTPn1DHnA3BmZ6gSBUvlzKVMLhsbG6m+vp7ee++9YJr58ePHB8Rn2LBhdOWVV9I555wTkC5+P2uXXXYJJtqQvuelfF5fr7/++rTddtvR/vvvT8cffzydd955wcQePMEHT/TBE358+eWXifZIOliONuKYV+wFyaUMYbRHMtxYC+2RHDvWRKyT4YdYJ8MNsU6GG2txrLOStGnTpgUzj3366afeVykWOeNEzbcXjW8eFcXbhFkFNIpZKEQbLblRZLLFHz5+99136eWXX6Zx48bRqFGjiIf6XX755cEEGEyC+HuJTLZ4Uo0111yzIL1cOun63e9+R1tuuSXttddedPTRR9Nf/vIX4m+C3XbbbfTII48Ek3y88847ATEsBvloyTbyrXSIdb6IhfKIdSEWki34kQQ1IhAAGW6IdTLcWAuxTo4da5Yq1llJmuQmiknOVFLn24vGgMKZ5RUSzizHrpjO/L///Y/Y3/hPFO454ve2ampqAlJz11130c033xz0avFQwt69e9NRRx0VTKDxxz/+kf7whz/QGmusUXCyxT76m9/8hrini7/7xcMM+dtfp512WkC6uKeNP+783HPPBbMefvbZZ8QTfiQtSFySUEk/hliXjpFJArHOhIzbcUnO4HbmUAo2CrGQbMFGEtRApGWoIfeW4sZ6HOsKRtJKQc6kvWj8sEhc5FUFjaIcO9ZMahSZmPB3uD788MOArDDBevLJJ+n++++n4cOH06BBg+iSSy4JepROOukkOuyww4Lp4fl9LSZY3POk/rQo1prf5+J3w7bZZpvg2ky2evXqFbzXde2119Lf//53Gjt2bEC43njjDZo3b14w1Xx+aIXaIGkhFj5biHU+aEVlEeuiePjuJcU633OkycNGaQjZy2EjOz6mUrRHJmTsx9Ee2fGxlRaEpJWKnKlEVNKLxiCgotiqgr2sLTWKv/76azCLH7/PxNO5z549m9566y165ZVXAjJSXV1NDz30UPAhYp7inSehuOqqq+jiiy8O3sPi723x8MBu3boFvVZ77rlnMPX7FltsQRtvvHEwVHfllVcuOsFS/rLCCisEMx9uttlmtNNOOwWzFx555JH05z//mfr16xeQwTvuuCOYOfGFF14ICCM/97///e/ESgE/SoTF6WBb8iMnQDyFkFx6AtYsjuRShhtinQw31kKsk2PHmoh1MvzKMdaJe9JKTc446ZS8i6ZMjYCrkPBflzLg/vDDDwFJ4hn3Fi1aFBCl999/n2bOnEmvv/568N4Uz8rHE1Xwh4L5Y8T33nsvjRw5kngoHZOmgQMHBkPr/vrXvxJP1c6E5OSTTw5m9zv88MOD96uYPPGwPx6S9/vf/574+1c8DbsiNy1hvdpqq9FGG20U3OPuu+8e3DfPUMhDB/nZ+Dn5mXmyDO7RYkz4PVKezGPhwoV5TxmfVFPgR0mouB0rpR9xY8W2KvZSjo0iP1OxF/iRHGH4kRw71gQBkOGHWCfDDbFOhhtrcazzJmnLg5yphFnai8YP2xYrCr+zxMPqmPjw1Oc8vI6Td+4pmTt3bjD9OL/LxEPV+APAkydPDqYl59nxeOjdY489FnwniieSYBLEP+494kklBg8eTGwPnsmPPxh84YUXBjPs8YQPTIp69OgRfPD3mGOOCXqVDjnkkKBnqVOnTtShQ4dgZj7+LhUTJH5/iT8yXMjZ/1SdKfWan6OioiKYBGPnnXemvffem/bdd1867rjjAlx4CvgBAwYEPVj8zS8e3shYM/YzZswIhgx+/fXXxve0TO6OxMWEjNtxJC5uOMWlkLjEEXHbb4vtkRsy6VKIdekY2SQQ62zomMsQ68zY2EoQ62zo2MsCksYVz/TjRF6V8XTbVVVVQW9WqRNfvh7PKMek4emnnw56DDix5ZnonnjiCfrXv/4VlPHHbnkmOO5V4CFpPEEBJ8GjR4+m++67L+hx4V4HnlSBv8/Ew7yYeHCyzO8BMQHh2eS4d+KWW24JJl646aab6MYbbwx6aPg9oeuvvz6Y6psJCvdk8FC3K664Iui56d+/f/AR3AsuuIDOPffcYGa8Pn36BD0f/C7PKaecEkxLzgk7k5c//elPxD07Xbt2pYMOOiggMfwx3c6dOxP39Oy2227Eif6OO+4YkBr+aC8Pm+Oha/xeEg+fY4Kz3nrrBXZhgrD66qvTKqusQjzMbXnYqbVckzHi3jP+hta2224bYM3TufMwRf6Y8emnn05sR57hkAkp1w2uO1y/uMeK3yHjnj0eDrlgwQJavHhx1leUz6i17kfqGNbmuLM8sIGNWpY9kuoAbAQbJdULHPOrF/AjP7yWR/2CjWAjVe8yzNRMP54IgP/VZzKyzjrrIOnPZIBBnhjw+1i//e1vaYMNNgh60Zh0br/99kHvGveyMVE69NBDg5kImSzxrIRnnnlm8LFjJsHcc8dEmWcu/Nvf/haQbf4wMZMnfl+MZzecNGlS8O0ufpeMp5bngPfJJ58E383inmBV+ZctW2as+yafkBxnP5Lo+ejws/Bz+ehIZNV1SoEdP08prsM4wEbmdsBWT2AjGW7wIxluXBcVdrZ6WYgydZ1SxCD4kaw+wEYy3OBHctxUbClVzmAd7shJM/fIcA9Na+khae33ydOXM5Hh95G495Dfw+OeMp5lj3vOuAeNe9KY3HDPGn9biieE4G9Ycc8bT3nO35riIXYHHnhg0EvHPXb8LhOTnp49ewa9RGeddVYwS99FF10UDFfkXlKesY/f6eLhjEyAuKeRe494uCMTIX4HjHsweTgkTzLx0ksvBcMkebgkvzPGvUpMiHg4JQ+r5OGVPMySh1vysEsefmlb0C1uQ8dexoGDG/piL7CRHGHYSI4da2KYlgw/jgtc90qxwEYylGEjGW5oj2S4sRbaIzl2rFmqWGclaZzwM+mprKwMhnTxu0bLiwQxUXzmmWcCYsDkwPen3rfita9umjzP/MfvdPHwN+69mT59Or399tvBBA4ffPBBYEweEsffhPriiy8C8vLNN98EM+gxgVEBmgOO71KqigIC4GuZUB42CrHw2VJ+4aMjlYWNZMjBRjLckFzKcGMtJJdy7FgTsU6GH2KdDDfEOhlurMWxzpmkqcsw2VheZA0ThygrhGsE3BALny0EXB+0QlkE3BAL3y0kl76IReUR66J4uO4h1rkiFZVDrIvi4bOHWOeDVq4sYl0uJi5HyjHWeZM0BdTyIGv8Xhy/UyRZEHAlqDXpIODKsWNNBFwZfuUYcPmZir0g1skRRqyTY8eaiHUy/BDrZLgh1slwYy3EOjl2rFmqWCcmaerxSk3WpL1pcGZlMf81nNkfM12jVM4MAqCj7rcNG/nhpaSRXCok/NZoj/zw0qXRHulo+G8j1vljxhqIdTLcEOtkuLEWx7q8SZq6fKnImrQ3DRVFWcp/jUbRHzNdA42ijob7NhpFd6x0ScQ6HQ2/bcQ6P7zi0oh1cUTc9hHr3HCKSyHWxRFx30esc8cqSbJUsa5gJE09RCnImqQ3Dc6sLOS/hjP7Y6ZrlMqZuaEv9gI/kiMMP5Jjx5rwIxl+IAAy3BDrZLixFmKdHDvWRKyT4VeOsc5K0o444gjadNNNgyndfSErJlmT9KYh4PpaMJRHwA2xkGwh4EpQw/ASGWpEiHVS5JBcypFr0kSskyFYjskl/jSU1QXWgh/JsCtHP7KStEJUlGKRNd/eNCQuskrPWiBpcuxYsxB+lHYHsFEaQvZy2MiOj6m0HBtFJJcma6cfhx+lY5QkAT9KQiX9GPK6dIxMEsgZTMi4HS9VrCs6SVOPW2iy5tubBmdWlvBfw5n9MdM1SuXMSC511P22YSM/vJQ0kkuFhN8a7ZEfXro02iMdDf9txDp/zFgDsU6GG2KdDDfW4lhXMpKmbrOQZM2nNw0VRVnAf41G0R8zXQONoo6G+zYaRXesdEnEOh0Nv23EOj+84tKIdXFE3PYR69xwiksh1sURcd9HrHPHKkmyVLGu5CRNPWwhyJpPbxqcWSHvv4Yz+2Oma5TKmbmhL/YCP5IjDD+SY8ea8CMZfiAAMtwQ62S4sRZinRw71kSsk+FXjrFuuZE0ZYJ58+ZRr169KJPJiH6uvWkIuApx/zUCrj9mugYCro6G+3Y5BlwQaXf7xyXhR3FE3PbhR244xaWQM8QRcd9HzuCOVZIkYl0SKunHyjHWLXeSppxZ2rPm2puGgJtewU0Sykam8kIdh43kSMJGcuxYE42iDL9ybBRBpGV1AX4kxw1+JMMOOYMMN9ZCziDHjjVLlTO0GJKm4JKQNZfeNDizQth/DWf2x0zXKJUzI7nUUffbho388FLSSC4VEn5rtEd+eOnSaI90NPy3Eev8MWMNxDoZboh1MtxYi2OdlaRNmDCBXnnlFXrjjTfkV0nRNAVcH7Lm0puGipJiCEuxyUYWFVERbCSCLVCCjeTYsSYSFxl+SFxkuCHWyXBjLcQ6OXasiVgnww+xToYbYp0MN9biWGclaR07dgzeE6usrJRfJUUzLeC6krW03jRUlBRDWIrTbGRR9SqCjbzgigjDRhE4vHeQuHhDFiggcZHhhlgnw421EOvk2LEmYp0MP8Q6GW6IdTLcWItjXYsnaerx0shaWm8aKopC0n+NRtEfM10DjaKOhvs2GkV3rHRJxDodDb9txDo/vOLSiHVxRNz2EevccIpLIdbFEXHfR6xzxypJslSxrtWQNAWSjazZetPgzApB/zWc2R8zXaNUzswNfbEX+JEcYfiRHDvWhB/J8AMBkOGGWCfDjbUQ6+TYsSZinQy/cox1rY6kKdMlkTVbbxoCrkLOf42A64+ZroGAq6Phvl2OARdE2t3+cUn4URwRt334kRtOcSnkDHFE3PeRM7hjlSSJWJeESvqxcox1rZakKXPFyZqpNw0BVyHmv0bA9cdM10DA1dFw3y7HgAuS5m7/uCT8KI6I2z78yA2nuBRyhjgi7vvIGdyxSpJErEtCJf1YOca6Vk/SlNkUWTP1piHgKqT81wi4/pjpGgi4Ohru2+UYcEHS3O0fl4QfxRFx24cfueEUl0LOEEfEfR85gztWSZKIdUmopB8rx1hXNiRNmY/J2syZM9Vudo2Am4XCewMB1xuyiAICbgQO551yDLggac7mzxGEH+VA4nQAfuQEU44QcoYcSJwPIGdwhipRELEuEZbUg+UY6/4/uu+XWjbW7qcAAAAASUVORK5CYII=;" parent="1" vertex="1">
          <mxGeometry x="677.31" y="700.5" width="289.69" height="54.75" as="geometry" />
        </mxCell>
        <mxCell id="CMqTHXdfddeT0Ks9XY-2-110" value="SOM1 ChercherClientParID(idClient)&lt;br&gt;: idClient, Client, idAdresse, idPortefeuille, Liste&amp;lt;idSegment&amp;gt;" style="html=1;verticalAlign=bottom;endArrow=block;labelBackgroundColor=none;fontFamily=Verdana;fontSize=12;edgeStyle=elbowEdgeStyle;elbow=vertical;" parent="1" target="7baba1c4bc27f4b0-4" edge="1">
          <mxGeometry x="-0.0768" relative="1" as="geometry">
            <mxPoint x="680.0000000000001" y="999.9999999999999" as="sourcePoint" />
            <mxPoint x="810.0000000000002" y="999.9999999999999" as="targetPoint" />
            <mxPoint as="offset" />
          </mxGeometry>
        </mxCell>
        <mxCell id="CMqTHXdfddeT0Ks9XY-2-115" value="Produit" style="shape=umlLifeline;perimeter=lifelinePerimeter;whiteSpace=wrap;html=1;container=1;collapsible=0;recursiveResize=0;outlineConnect=0;rounded=1;shadow=0;comic=0;labelBackgroundColor=none;strokeWidth=1;fontFamily=Verdana;fontSize=12;align=center;" parent="1" vertex="1">
          <mxGeometry x="1650" y="100" width="100" height="1600" as="geometry" />
        </mxCell>
        <mxCell id="CMqTHXdfddeT0Ks9XY-2-121" value="MajClient" style="html=1;verticalAlign=bottom;endArrow=block;labelBackgroundColor=none;fontFamily=Verdana;fontSize=12;edgeStyle=elbowEdgeStyle;elbow=vertical;" parent="1" target="7baba1c4bc27f4b0-2" edge="1">
          <mxGeometry x="-0.0768" relative="1" as="geometry">
            <mxPoint x="150.00000000000023" y="1240" as="sourcePoint" />
            <mxPoint x="280.0000000000002" y="1240" as="targetPoint" />
            <mxPoint as="offset" />
          </mxGeometry>
        </mxCell>
        <mxCell id="CMqTHXdfddeT0Ks9XY-2-122" value="SMA4 - ModifierClient(idClient, Denomination, Adresse, Liste&amp;lt;idSegment,Segment&amp;gt;)" style="html=1;verticalAlign=bottom;endArrow=block;labelBackgroundColor=none;fontFamily=Verdana;fontSize=12;edgeStyle=elbowEdgeStyle;elbow=vertical;" parent="1" target="7baba1c4bc27f4b0-3" edge="1">
          <mxGeometry x="-0.0768" relative="1" as="geometry">
            <mxPoint x="290.0000000000002" y="1274.12" as="sourcePoint" />
            <mxPoint x="429.5" y="1274.0023529411765" as="targetPoint" />
            <mxPoint as="offset" />
          </mxGeometry>
        </mxCell>
        <mxCell id="CMqTHXdfddeT0Ks9XY-2-123" value="SOM 1 - MAJDenominationClient(idClient, Denomination)" style="html=1;verticalAlign=bottom;endArrow=block;labelBackgroundColor=none;fontFamily=Verdana;fontSize=12;edgeStyle=elbowEdgeStyle;elbow=vertical;" parent="1" target="7baba1c4bc27f4b0-4" edge="1">
          <mxGeometry x="-0.0768" relative="1" as="geometry">
            <mxPoint x="680.0000000000002" y="1310.12" as="sourcePoint" />
            <mxPoint x="1069.5" y="1310" as="targetPoint" />
            <mxPoint as="offset" />
          </mxGeometry>
        </mxCell>
        <mxCell id="CMqTHXdfddeT0Ks9XY-2-124" value="SOM1 ChercherClientParID(idClient)&lt;br&gt;: idClient, Client, idAdresse, idPortefeuille, Liste&amp;lt;idSegment&amp;gt;" style="html=1;verticalAlign=bottom;endArrow=block;labelBackgroundColor=none;fontFamily=Verdana;fontSize=12;edgeStyle=elbowEdgeStyle;elbow=vertical;" parent="1" target="7baba1c4bc27f4b0-4" edge="1">
          <mxGeometry x="-0.0768" relative="1" as="geometry">
            <mxPoint x="680" y="1360" as="sourcePoint" />
            <mxPoint x="1100" y="1360" as="targetPoint" />
            <mxPoint as="offset" />
          </mxGeometry>
        </mxCell>
        <mxCell id="CMqTHXdfddeT0Ks9XY-2-116" value="" style="endArrow=classic;html=1;startSize=14;endSize=14;sourcePerimeterSpacing=8;targetPerimeterSpacing=8;" parent="1" source="7baba1c4bc27f4b0-3" target="CMqTHXdfddeT0Ks9XY-2-115" edge="1">
          <mxGeometry width="50" height="50" relative="1" as="geometry">
            <mxPoint x="850.0033333333334" y="1160" as="sourcePoint" />
            <mxPoint x="1736.34" y="1160" as="targetPoint" />
            <Array as="points">
              <mxPoint x="1187.67" y="1160" />
            </Array>
          </mxGeometry>
        </mxCell>
        <mxCell id="CMqTHXdfddeT0Ks9XY-2-117" value="SOM4 - ChercherSegment(idSegment)&lt;br&gt;:idSegment, Segment" style="edgeLabel;html=1;align=center;verticalAlign=middle;resizable=0;points=[];labelBackgroundColor=none;" parent="CMqTHXdfddeT0Ks9XY-2-116" vertex="1" connectable="0">
          <mxGeometry x="0.0341" y="6" relative="1" as="geometry">
            <mxPoint y="6" as="offset" />
          </mxGeometry>
        </mxCell>
        <mxCell id="CMqTHXdfddeT0Ks9XY-2-113" value="" style="endArrow=classic;html=1;startSize=14;endSize=14;sourcePerimeterSpacing=8;targetPerimeterSpacing=8;" parent="1" source="7baba1c4bc27f4b0-3" target="7baba1c4bc27f4b0-7" edge="1">
          <mxGeometry width="50" height="50" relative="1" as="geometry">
            <mxPoint x="853.1633333333335" y="1110" as="sourcePoint" />
            <mxPoint x="1633.8300000000002" y="1110" as="targetPoint" />
            <Array as="points">
              <mxPoint x="1190.83" y="1110" />
            </Array>
          </mxGeometry>
        </mxCell>
        <mxCell id="CMqTHXdfddeT0Ks9XY-2-114" value="SOM3 - ChercherInfosStructures(idPortefeuille)&lt;br&gt;:idAgentce, Agence, idAgent, Agent" style="edgeLabel;html=1;align=center;verticalAlign=middle;resizable=0;points=[];labelBackgroundColor=none;" parent="CMqTHXdfddeT0Ks9XY-2-113" vertex="1" connectable="0">
          <mxGeometry x="0.0341" y="6" relative="1" as="geometry">
            <mxPoint y="6" as="offset" />
          </mxGeometry>
        </mxCell>
        <mxCell id="CMqTHXdfddeT0Ks9XY-2-125" value="SOM3 - MAJdeAddresseClient(idAdresse, Adresse)" style="html=1;verticalAlign=bottom;endArrow=block;labelBackgroundColor=none;fontFamily=Verdana;fontSize=12;edgeStyle=elbowEdgeStyle;elbow=vertical;" parent="1" target="7baba1c4bc27f4b0-6" edge="1">
          <mxGeometry x="-0.0768" relative="1" as="geometry">
            <mxPoint x="680" y="1440" as="sourcePoint" />
            <mxPoint x="1073" y="1440" as="targetPoint" />
            <mxPoint as="offset" />
          </mxGeometry>
        </mxCell>
        <mxCell id="7baba1c4bc27f4b0-3" value="SM" style="shape=umlLifeline;perimeter=lifelinePerimeter;whiteSpace=wrap;html=1;container=1;collapsible=0;recursiveResize=0;outlineConnect=0;rounded=1;shadow=0;comic=0;labelBackgroundColor=none;strokeWidth=1;fontFamily=Verdana;fontSize=12;align=center;" parent="1" vertex="1">
          <mxGeometry x="630" y="80" width="100" height="1620" as="geometry" />
        </mxCell>
      </root>
    </mxGraphModel>
  </diagram>
</mxfile>
